<?xml version="1.0" encoding="UTF-8" standalone="no"?>
<!-- Created with Inkscape (http://www.inkscape.org/) -->

<svg
   version="1.1"
   id="svg2"
   width="395.27267"
   height="233.29259"
   viewBox="0 0 395.27267 233.29259"
   sodipodi:docname="ISLP_figure_6.14.pdf"
   xmlns:inkscape="http://www.inkscape.org/namespaces/inkscape"
   xmlns:sodipodi="http://sodipodi.sourceforge.net/DTD/sodipodi-0.dtd"
   xmlns="http://www.w3.org/2000/svg"
   xmlns:svg="http://www.w3.org/2000/svg">
  <defs
     id="defs6" />
  <sodipodi:namedview
     id="namedview4"
     pagecolor="#ffffff"
     bordercolor="#666666"
     borderopacity="1.0"
     inkscape:showpageshadow="2"
     inkscape:pageopacity="0.0"
     inkscape:pagecheckerboard="0"
     inkscape:deskcolor="#d1d1d1" />
  <g
     id="g8"
     inkscape:groupmode="layer"
     inkscape:label="ISLP_figure_6.14"
     transform="matrix(1.3333333,0,0,1.3333333,0,3.1656479e-6)">
    <g
       id="g10">
      <path
         d="m 202.156,54.207 c 0,-0.809 -0.656,-1.465 -1.465,-1.465 -0.812,0 -1.468,0.656 -1.468,1.465 0,0.813 0.656,1.469 1.468,1.469 0.809,0 1.465,-0.656 1.465,-1.469"
         style="fill:#ca78a6;fill-opacity:1;fill-rule:nonzero;stroke:#ca78a6;stroke-width:0.407562;stroke-linecap:round;stroke-linejoin:round;stroke-miterlimit:10;stroke-dasharray:none;stroke-opacity:1"
         id="path12" />
      <path
         d="m 187.148,49.664 c 0,-0.809 -0.656,-1.465 -1.468,-1.465 -0.809,0 -1.465,0.656 -1.465,1.465 0,0.813 0.656,1.469 1.465,1.469 0.812,0 1.468,-0.656 1.468,-1.469"
         style="fill:#ca78a6;fill-opacity:1;fill-rule:nonzero;stroke:#ca78a6;stroke-width:0.407562;stroke-linecap:round;stroke-linejoin:round;stroke-miterlimit:10;stroke-dasharray:none;stroke-opacity:1"
         id="path14" />
      <path
         d="m 197.496,59.344 c 0,-0.809 -0.656,-1.469 -1.469,-1.469 -0.808,0 -1.465,0.66 -1.465,1.469 0,0.808 0.657,1.468 1.465,1.468 0.813,0 1.469,-0.66 1.469,-1.468"
         style="fill:#ca78a6;fill-opacity:1;fill-rule:nonzero;stroke:#ca78a6;stroke-width:0.407562;stroke-linecap:round;stroke-linejoin:round;stroke-miterlimit:10;stroke-dasharray:none;stroke-opacity:1"
         id="path16" />
      <path
         d="m 117.098,62.121 c 0,-0.812 -0.657,-1.469 -1.469,-1.469 -0.809,0 -1.465,0.657 -1.465,1.469 0,0.809 0.656,1.469 1.465,1.469 0.812,0 1.469,-0.66 1.469,-1.469"
         style="fill:#ca78a6;fill-opacity:1;fill-rule:nonzero;stroke:#ca78a6;stroke-width:0.407562;stroke-linecap:round;stroke-linejoin:round;stroke-miterlimit:10;stroke-dasharray:none;stroke-opacity:1"
         id="path18" />
      <path
         d="m 179.594,51.102 c 0,-0.813 -0.656,-1.469 -1.465,-1.469 -0.813,0 -1.469,0.656 -1.469,1.469 0,0.808 0.656,1.464 1.469,1.464 0.809,0 1.465,-0.656 1.465,-1.464"
         style="fill:#ca78a6;fill-opacity:1;fill-rule:nonzero;stroke:#ca78a6;stroke-width:0.407562;stroke-linecap:round;stroke-linejoin:round;stroke-miterlimit:10;stroke-dasharray:none;stroke-opacity:1"
         id="path20" />
      <path
         d="m 117.598,96.203 c 0,-0.808 -0.657,-1.465 -1.469,-1.465 -0.809,0 -1.465,0.657 -1.465,1.465 0,0.813 0.656,1.469 1.465,1.469 0.812,0 1.469,-0.656 1.469,-1.469"
         style="fill:#ca78a6;fill-opacity:1;fill-rule:nonzero;stroke:#ca78a6;stroke-width:0.407562;stroke-linecap:round;stroke-linejoin:round;stroke-miterlimit:10;stroke-dasharray:none;stroke-opacity:1"
         id="path22" />
      <path
         d="m 151.711,61.793 c 0,-0.809 -0.656,-1.465 -1.465,-1.465 -0.812,0 -1.469,0.656 -1.469,1.465 0,0.812 0.657,1.469 1.469,1.469 0.809,0 1.465,-0.657 1.465,-1.469"
         style="fill:#ca78a6;fill-opacity:1;fill-rule:nonzero;stroke:#ca78a6;stroke-width:0.407562;stroke-linecap:round;stroke-linejoin:round;stroke-miterlimit:10;stroke-dasharray:none;stroke-opacity:1"
         id="path24" />
      <path
         d="m 123.668,71.246 c 0,-0.812 -0.66,-1.469 -1.469,-1.469 -0.808,0 -1.469,0.657 -1.469,1.469 0,0.809 0.661,1.465 1.469,1.465 0.809,0 1.469,-0.656 1.469,-1.465"
         style="fill:#ca78a6;fill-opacity:1;fill-rule:nonzero;stroke:#ca78a6;stroke-width:0.407562;stroke-linecap:round;stroke-linejoin:round;stroke-miterlimit:10;stroke-dasharray:none;stroke-opacity:1"
         id="path26" />
      <path
         d="m 219.547,29.059 c 0,-0.809 -0.656,-1.465 -1.469,-1.465 -0.808,0 -1.465,0.656 -1.465,1.465 0,0.812 0.657,1.468 1.465,1.468 0.813,0 1.469,-0.656 1.469,-1.468"
         style="fill:#ca78a6;fill-opacity:1;fill-rule:nonzero;stroke:#ca78a6;stroke-width:0.407562;stroke-linecap:round;stroke-linejoin:round;stroke-miterlimit:10;stroke-dasharray:none;stroke-opacity:1"
         id="path28" />
      <path
         d="m 167,65.961 c 0,-0.809 -0.66,-1.465 -1.469,-1.465 -0.808,0 -1.469,0.656 -1.469,1.465 0,0.812 0.661,1.469 1.469,1.469 0.809,0 1.469,-0.657 1.469,-1.469"
         style="fill:#ca78a6;fill-opacity:1;fill-rule:nonzero;stroke:#ca78a6;stroke-width:0.407562;stroke-linecap:round;stroke-linejoin:round;stroke-miterlimit:10;stroke-dasharray:none;stroke-opacity:1"
         id="path30" />
      <path
         d="m 162.312,42.324 c 0,-0.808 -0.656,-1.469 -1.464,-1.469 -0.813,0 -1.469,0.661 -1.469,1.469 0,0.809 0.656,1.469 1.469,1.469 0.808,0 1.464,-0.66 1.464,-1.469"
         style="fill:#ca78a6;fill-opacity:1;fill-rule:nonzero;stroke:#ca78a6;stroke-width:0.407562;stroke-linecap:round;stroke-linejoin:round;stroke-miterlimit:10;stroke-dasharray:none;stroke-opacity:1"
         id="path32" />
      <path
         d="m 147.488,65.141 c 0,-0.809 -0.656,-1.465 -1.465,-1.465 -0.812,0 -1.468,0.656 -1.468,1.465 0,0.812 0.656,1.468 1.468,1.468 0.809,0 1.465,-0.656 1.465,-1.468"
         style="fill:#ca78a6;fill-opacity:1;fill-rule:nonzero;stroke:#ca78a6;stroke-width:0.407562;stroke-linecap:round;stroke-linejoin:round;stroke-miterlimit:10;stroke-dasharray:none;stroke-opacity:1"
         id="path34" />
      <path
         d="m 174.215,67.098 c 0,-0.809 -0.656,-1.465 -1.469,-1.465 -0.808,0 -1.465,0.656 -1.465,1.465 0,0.812 0.657,1.468 1.465,1.468 0.813,0 1.469,-0.656 1.469,-1.468"
         style="fill:#ca78a6;fill-opacity:1;fill-rule:nonzero;stroke:#ca78a6;stroke-width:0.407562;stroke-linecap:round;stroke-linejoin:round;stroke-miterlimit:10;stroke-dasharray:none;stroke-opacity:1"
         id="path36" />
      <path
         d="m 164.988,94.02 c 0,-0.813 -0.656,-1.469 -1.468,-1.469 -0.809,0 -1.465,0.656 -1.465,1.469 0,0.808 0.656,1.468 1.465,1.468 0.812,0 1.468,-0.66 1.468,-1.468"
         style="fill:#ca78a6;fill-opacity:1;fill-rule:nonzero;stroke:#ca78a6;stroke-width:0.407562;stroke-linecap:round;stroke-linejoin:round;stroke-miterlimit:10;stroke-dasharray:none;stroke-opacity:1"
         id="path38" />
      <path
         d="m 146.98,54.938 c 0,-0.813 -0.66,-1.469 -1.468,-1.469 -0.809,0 -1.469,0.656 -1.469,1.469 0,0.808 0.66,1.464 1.469,1.464 0.808,0 1.468,-0.656 1.468,-1.464"
         style="fill:#ca78a6;fill-opacity:1;fill-rule:nonzero;stroke:#ca78a6;stroke-width:0.407562;stroke-linecap:round;stroke-linejoin:round;stroke-miterlimit:10;stroke-dasharray:none;stroke-opacity:1"
         id="path40" />
      <path
         d="m 79.684,102.785 c 0,-0.812 -0.657,-1.469 -1.469,-1.469 -0.809,0 -1.469,0.657 -1.469,1.469 0,0.809 0.66,1.465 1.469,1.465 0.812,0 1.469,-0.656 1.469,-1.465"
         style="fill:#ca78a6;fill-opacity:1;fill-rule:nonzero;stroke:#ca78a6;stroke-width:0.407562;stroke-linecap:round;stroke-linejoin:round;stroke-miterlimit:10;stroke-dasharray:none;stroke-opacity:1"
         id="path42" />
      <path
         d="m 153.934,67.918 c 0,-0.809 -0.657,-1.465 -1.465,-1.465 -0.813,0 -1.469,0.656 -1.469,1.465 0,0.812 0.656,1.469 1.469,1.469 0.808,0 1.465,-0.657 1.465,-1.469"
         style="fill:#ca78a6;fill-opacity:1;fill-rule:nonzero;stroke:#ca78a6;stroke-width:0.407562;stroke-linecap:round;stroke-linejoin:round;stroke-miterlimit:10;stroke-dasharray:none;stroke-opacity:1"
         id="path44" />
      <path
         d="m 101.348,78.684 c 0,-0.809 -0.657,-1.465 -1.465,-1.465 -0.813,0 -1.469,0.656 -1.469,1.465 0,0.812 0.656,1.468 1.469,1.468 0.808,0 1.465,-0.656 1.465,-1.468"
         style="fill:#ca78a6;fill-opacity:1;fill-rule:nonzero;stroke:#ca78a6;stroke-width:0.407562;stroke-linecap:round;stroke-linejoin:round;stroke-miterlimit:10;stroke-dasharray:none;stroke-opacity:1"
         id="path46" />
      <path
         d="m 177.566,45.051 c 0,-0.809 -0.656,-1.465 -1.464,-1.465 -0.813,0 -1.469,0.656 -1.469,1.465 0,0.812 0.656,1.469 1.469,1.469 0.808,0 1.464,-0.657 1.464,-1.469"
         style="fill:#ca78a6;fill-opacity:1;fill-rule:nonzero;stroke:#ca78a6;stroke-width:0.407562;stroke-linecap:round;stroke-linejoin:round;stroke-miterlimit:10;stroke-dasharray:none;stroke-opacity:1"
         id="path48" />
      <path
         d="m 175.566,49.211 c 0,-0.813 -0.656,-1.469 -1.464,-1.469 -0.813,0 -1.469,0.656 -1.469,1.469 0,0.809 0.656,1.465 1.469,1.465 0.808,0 1.464,-0.656 1.464,-1.465"
         style="fill:#ca78a6;fill-opacity:1;fill-rule:nonzero;stroke:#ca78a6;stroke-width:0.407562;stroke-linecap:round;stroke-linejoin:round;stroke-miterlimit:10;stroke-dasharray:none;stroke-opacity:1"
         id="path50" />
      <path
         d="m 159.879,51.871 c 0,-0.809 -0.656,-1.465 -1.465,-1.465 -0.812,0 -1.469,0.656 -1.469,1.465 0,0.813 0.657,1.469 1.469,1.469 0.809,0 1.465,-0.656 1.465,-1.469"
         style="fill:#ca78a6;fill-opacity:1;fill-rule:nonzero;stroke:#ca78a6;stroke-width:0.407562;stroke-linecap:round;stroke-linejoin:round;stroke-miterlimit:10;stroke-dasharray:none;stroke-opacity:1"
         id="path52" />
      <path
         d="m 136.316,64.75 c 0,-0.809 -0.656,-1.465 -1.464,-1.465 -0.813,0 -1.469,0.656 -1.469,1.465 0,0.812 0.656,1.469 1.469,1.469 0.808,0 1.464,-0.657 1.464,-1.469"
         style="fill:#ca78a6;fill-opacity:1;fill-rule:nonzero;stroke:#ca78a6;stroke-width:0.407562;stroke-linecap:round;stroke-linejoin:round;stroke-miterlimit:10;stroke-dasharray:none;stroke-opacity:1"
         id="path54" />
      <path
         d="m 208.957,41.09 c 0,-0.809 -0.66,-1.465 -1.469,-1.465 -0.808,0 -1.468,0.656 -1.468,1.465 0,0.812 0.66,1.469 1.468,1.469 0.809,0 1.469,-0.657 1.469,-1.469"
         style="fill:#ca78a6;fill-opacity:1;fill-rule:nonzero;stroke:none"
         id="path56" />
      <path
         d="m 208.957,41.09 c 0,-0.809 -0.656,-1.465 -1.469,-1.465 -0.808,0 -1.468,0.656 -1.468,1.465 0,0.812 0.66,1.469 1.468,1.469 0.813,0 1.469,-0.657 1.469,-1.469"
         style="fill:none;stroke:#ca78a6;stroke-width:0.407562;stroke-linecap:round;stroke-linejoin:round;stroke-miterlimit:10;stroke-dasharray:none;stroke-opacity:1"
         id="path58" />
      <path
         d="m 83.008,128.863 c 0,-0.808 -0.656,-1.468 -1.469,-1.468 -0.809,0 -1.465,0.66 -1.465,1.468 0,0.809 0.656,1.469 1.465,1.469 0.813,0 1.469,-0.66 1.469,-1.469"
         style="fill:#ca78a6;fill-opacity:1;fill-rule:nonzero;stroke:#ca78a6;stroke-width:0.407562;stroke-linecap:round;stroke-linejoin:round;stroke-miterlimit:10;stroke-dasharray:none;stroke-opacity:1"
         id="path60" />
      <path
         d="m 186.125,43.941 c 0,-0.808 -0.656,-1.464 -1.465,-1.464 -0.812,0 -1.469,0.656 -1.469,1.464 0,0.813 0.657,1.469 1.469,1.469 0.809,0 1.465,-0.656 1.465,-1.469"
         style="fill:#ca78a6;fill-opacity:1;fill-rule:nonzero;stroke:#ca78a6;stroke-width:0.407562;stroke-linecap:round;stroke-linejoin:round;stroke-miterlimit:10;stroke-dasharray:none;stroke-opacity:1"
         id="path62" />
      <path
         d="m 140.484,74.727 c 0,-0.809 -0.656,-1.465 -1.464,-1.465 -0.813,0 -1.469,0.656 -1.469,1.465 0,0.812 0.656,1.468 1.469,1.468 0.808,0 1.464,-0.656 1.464,-1.468"
         style="fill:#ca78a6;fill-opacity:1;fill-rule:nonzero;stroke:#ca78a6;stroke-width:0.407562;stroke-linecap:round;stroke-linejoin:round;stroke-miterlimit:10;stroke-dasharray:none;stroke-opacity:1"
         id="path64" />
      <path
         d="m 166.543,64.051 c 0,-0.813 -0.656,-1.469 -1.469,-1.469 -0.808,0 -1.465,0.656 -1.465,1.469 0,0.808 0.657,1.465 1.465,1.465 0.813,0 1.469,-0.657 1.469,-1.465"
         style="fill:#ca78a6;fill-opacity:1;fill-rule:nonzero;stroke:#ca78a6;stroke-width:0.407562;stroke-linecap:round;stroke-linejoin:round;stroke-miterlimit:10;stroke-dasharray:none;stroke-opacity:1"
         id="path66" />
      <path
         d="m 155.141,88.02 c 0,-0.809 -0.657,-1.469 -1.465,-1.469 -0.813,0 -1.469,0.66 -1.469,1.469 0,0.812 0.656,1.468 1.469,1.468 0.808,0 1.465,-0.656 1.465,-1.468"
         style="fill:#ca78a6;fill-opacity:1;fill-rule:nonzero;stroke:#ca78a6;stroke-width:0.407562;stroke-linecap:round;stroke-linejoin:round;stroke-miterlimit:10;stroke-dasharray:none;stroke-opacity:1"
         id="path68" />
      <path
         d="m 125.52,87.668 c 0,-0.813 -0.657,-1.469 -1.469,-1.469 -0.809,0 -1.465,0.656 -1.465,1.469 0,0.809 0.656,1.465 1.465,1.465 0.812,0 1.469,-0.656 1.469,-1.465"
         style="fill:#ca78a6;fill-opacity:1;fill-rule:nonzero;stroke:#ca78a6;stroke-width:0.407562;stroke-linecap:round;stroke-linejoin:round;stroke-miterlimit:10;stroke-dasharray:none;stroke-opacity:1"
         id="path70" />
      <path
         d="m 230.031,26.434 c 0,-0.809 -0.66,-1.465 -1.469,-1.465 -0.808,0 -1.468,0.656 -1.468,1.465 0,0.812 0.66,1.468 1.468,1.468 0.809,0 1.469,-0.656 1.469,-1.468"
         style="fill:#ca78a6;fill-opacity:1;fill-rule:nonzero;stroke:#ca78a6;stroke-width:0.407562;stroke-linecap:round;stroke-linejoin:round;stroke-miterlimit:10;stroke-dasharray:none;stroke-opacity:1"
         id="path72" />
      <path
         d="m 154.488,48.129 c 0,-0.813 -0.656,-1.469 -1.465,-1.469 -0.812,0 -1.468,0.656 -1.468,1.469 0,0.809 0.656,1.465 1.468,1.465 0.809,0 1.465,-0.656 1.465,-1.465"
         style="fill:#ca78a6;fill-opacity:1;fill-rule:nonzero;stroke:#ca78a6;stroke-width:0.407562;stroke-linecap:round;stroke-linejoin:round;stroke-miterlimit:10;stroke-dasharray:none;stroke-opacity:1"
         id="path74" />
      <path
         d="m 144.84,73.371 c 0,-0.812 -0.66,-1.469 -1.469,-1.469 -0.809,0 -1.469,0.657 -1.469,1.469 0,0.809 0.66,1.465 1.469,1.465 0.809,0 1.469,-0.656 1.469,-1.465"
         style="fill:#ca78a6;fill-opacity:1;fill-rule:nonzero;stroke:#ca78a6;stroke-width:0.407562;stroke-linecap:round;stroke-linejoin:round;stroke-miterlimit:10;stroke-dasharray:none;stroke-opacity:1"
         id="path76" />
      <path
         d="m 250.262,17.48 c 0,-0.812 -0.657,-1.468 -1.469,-1.468 -0.809,0 -1.465,0.656 -1.465,1.468 0,0.809 0.656,1.465 1.465,1.465 0.812,0 1.469,-0.656 1.469,-1.465"
         style="fill:#ca78a6;fill-opacity:1;fill-rule:nonzero;stroke:#ca78a6;stroke-width:0.407562;stroke-linecap:round;stroke-linejoin:round;stroke-miterlimit:10;stroke-dasharray:none;stroke-opacity:1"
         id="path78" />
      <path
         d="m 192.816,50.41 c 0,-0.808 -0.656,-1.469 -1.468,-1.469 -0.809,0 -1.465,0.661 -1.465,1.469 0,0.809 0.656,1.469 1.465,1.469 0.812,0 1.468,-0.66 1.468,-1.469"
         style="fill:#ca78a6;fill-opacity:1;fill-rule:nonzero;stroke:#ca78a6;stroke-width:0.407562;stroke-linecap:round;stroke-linejoin:round;stroke-miterlimit:10;stroke-dasharray:none;stroke-opacity:1"
         id="path80" />
      <path
         d="m 173.801,78.031 c 0,-0.808 -0.656,-1.465 -1.465,-1.465 -0.813,0 -1.469,0.657 -1.469,1.465 0,0.813 0.656,1.469 1.469,1.469 0.809,0 1.465,-0.656 1.465,-1.469"
         style="fill:#ca78a6;fill-opacity:1;fill-rule:nonzero;stroke:#ca78a6;stroke-width:0.407562;stroke-linecap:round;stroke-linejoin:round;stroke-miterlimit:10;stroke-dasharray:none;stroke-opacity:1"
         id="path82" />
      <path
         d="m 163.957,68.934 c 0,-0.809 -0.66,-1.465 -1.469,-1.465 -0.808,0 -1.468,0.656 -1.468,1.465 0,0.812 0.66,1.468 1.468,1.468 0.809,0 1.469,-0.656 1.469,-1.468"
         style="fill:#ca78a6;fill-opacity:1;fill-rule:nonzero;stroke:#ca78a6;stroke-width:0.407562;stroke-linecap:round;stroke-linejoin:round;stroke-miterlimit:10;stroke-dasharray:none;stroke-opacity:1"
         id="path84" />
      <path
         d="m 170.203,65.738 c 0,-0.808 -0.656,-1.465 -1.465,-1.465 -0.812,0 -1.468,0.657 -1.468,1.465 0,0.813 0.656,1.469 1.468,1.469 0.809,0 1.465,-0.656 1.465,-1.469"
         style="fill:#ca78a6;fill-opacity:1;fill-rule:nonzero;stroke:#ca78a6;stroke-width:0.407562;stroke-linecap:round;stroke-linejoin:round;stroke-miterlimit:10;stroke-dasharray:none;stroke-opacity:1"
         id="path86" />
      <path
         d="m 155.023,68.027 c 0,-0.808 -0.66,-1.468 -1.468,-1.468 -0.809,0 -1.469,0.66 -1.469,1.468 0,0.809 0.66,1.469 1.469,1.469 0.808,0 1.468,-0.66 1.468,-1.469"
         style="fill:#ca78a6;fill-opacity:1;fill-rule:nonzero;stroke:#ca78a6;stroke-width:0.407562;stroke-linecap:round;stroke-linejoin:round;stroke-miterlimit:10;stroke-dasharray:none;stroke-opacity:1"
         id="path88" />
      <path
         d="m 137.938,59.484 c 0,-0.808 -0.657,-1.464 -1.469,-1.464 -0.809,0 -1.465,0.656 -1.465,1.464 0,0.813 0.656,1.469 1.465,1.469 0.812,0 1.469,-0.656 1.469,-1.469"
         style="fill:#ca78a6;fill-opacity:1;fill-rule:nonzero;stroke:#ca78a6;stroke-width:0.407562;stroke-linecap:round;stroke-linejoin:round;stroke-miterlimit:10;stroke-dasharray:none;stroke-opacity:1"
         id="path90" />
      <path
         d="m 203.922,33.645 c 0,-0.809 -0.656,-1.465 -1.465,-1.465 -0.812,0 -1.469,0.656 -1.469,1.465 0,0.812 0.657,1.468 1.469,1.468 0.809,0 1.465,-0.656 1.465,-1.468"
         style="fill:#ca78a6;fill-opacity:1;fill-rule:nonzero;stroke:#ca78a6;stroke-width:0.407562;stroke-linecap:round;stroke-linejoin:round;stroke-miterlimit:10;stroke-dasharray:none;stroke-opacity:1"
         id="path92" />
      <path
         d="m 185.594,55.332 c 0,-0.809 -0.656,-1.465 -1.465,-1.465 -0.813,0 -1.469,0.656 -1.469,1.465 0,0.813 0.656,1.469 1.469,1.469 0.809,0 1.465,-0.656 1.465,-1.469"
         style="fill:#ca78a6;fill-opacity:1;fill-rule:nonzero;stroke:#ca78a6;stroke-width:0.407562;stroke-linecap:round;stroke-linejoin:round;stroke-miterlimit:10;stroke-dasharray:none;stroke-opacity:1"
         id="path94" />
      <path
         d="m 183.59,57.523 c 0,-0.808 -0.656,-1.468 -1.469,-1.468 -0.809,0 -1.465,0.66 -1.465,1.468 0,0.809 0.656,1.469 1.465,1.469 0.813,0 1.469,-0.66 1.469,-1.469"
         style="fill:#ca78a6;fill-opacity:1;fill-rule:nonzero;stroke:#ca78a6;stroke-width:0.407562;stroke-linecap:round;stroke-linejoin:round;stroke-miterlimit:10;stroke-dasharray:none;stroke-opacity:1"
         id="path96" />
      <path
         d="m 162.617,53.758 c 0,-0.813 -0.656,-1.469 -1.465,-1.469 -0.812,0 -1.468,0.656 -1.468,1.469 0,0.808 0.656,1.469 1.468,1.469 0.809,0 1.465,-0.661 1.465,-1.469"
         style="fill:#ca78a6;fill-opacity:1;fill-rule:nonzero;stroke:#ca78a6;stroke-width:0.407562;stroke-linecap:round;stroke-linejoin:round;stroke-miterlimit:10;stroke-dasharray:none;stroke-opacity:1"
         id="path98" />
      <path
         d="m 218.613,29.766 c 0,-0.809 -0.656,-1.469 -1.468,-1.469 -0.809,0 -1.465,0.66 -1.465,1.469 0,0.808 0.656,1.468 1.465,1.468 0.812,0 1.468,-0.66 1.468,-1.468"
         style="fill:#ca78a6;fill-opacity:1;fill-rule:nonzero;stroke:#ca78a6;stroke-width:0.407562;stroke-linecap:round;stroke-linejoin:round;stroke-miterlimit:10;stroke-dasharray:none;stroke-opacity:1"
         id="path100" />
      <path
         d="m 109.988,97.867 c 0,-0.812 -0.656,-1.469 -1.465,-1.469 -0.812,0 -1.468,0.657 -1.468,1.469 0,0.809 0.656,1.465 1.468,1.465 0.809,0 1.465,-0.656 1.465,-1.465"
         style="fill:#ca78a6;fill-opacity:1;fill-rule:nonzero;stroke:#ca78a6;stroke-width:0.407562;stroke-linecap:round;stroke-linejoin:round;stroke-miterlimit:10;stroke-dasharray:none;stroke-opacity:1"
         id="path102" />
      <path
         d="m 228.914,42.945 c 0,-0.812 -0.656,-1.468 -1.465,-1.468 -0.812,0 -1.469,0.656 -1.469,1.468 0,0.809 0.657,1.465 1.469,1.465 0.809,0 1.465,-0.656 1.465,-1.465"
         style="fill:#ca78a6;fill-opacity:1;fill-rule:nonzero;stroke:#ca78a6;stroke-width:0.407562;stroke-linecap:round;stroke-linejoin:round;stroke-miterlimit:10;stroke-dasharray:none;stroke-opacity:1"
         id="path104" />
      <path
         d="m 224.594,29.715 c 0,-0.809 -0.656,-1.465 -1.465,-1.465 -0.813,0 -1.469,0.656 -1.469,1.465 0,0.812 0.656,1.469 1.469,1.469 0.809,0 1.465,-0.657 1.465,-1.469"
         style="fill:#ca78a6;fill-opacity:1;fill-rule:nonzero;stroke:#ca78a6;stroke-width:0.407562;stroke-linecap:round;stroke-linejoin:round;stroke-miterlimit:10;stroke-dasharray:none;stroke-opacity:1"
         id="path106" />
      <path
         d="m 203.359,33.832 c 0,-0.812 -0.656,-1.469 -1.468,-1.469 -0.809,0 -1.465,0.657 -1.465,1.469 0,0.809 0.656,1.465 1.465,1.465 0.812,0 1.468,-0.656 1.468,-1.465"
         style="fill:#ca78a6;fill-opacity:1;fill-rule:nonzero;stroke:#ca78a6;stroke-width:0.407562;stroke-linecap:round;stroke-linejoin:round;stroke-miterlimit:10;stroke-dasharray:none;stroke-opacity:1"
         id="path108" />
      <path
         d="m 112.113,88.695 c 0,-0.812 -0.656,-1.468 -1.468,-1.468 -0.809,0 -1.465,0.656 -1.465,1.468 0,0.809 0.656,1.465 1.465,1.465 0.812,0 1.468,-0.656 1.468,-1.465"
         style="fill:#ca78a6;fill-opacity:1;fill-rule:nonzero;stroke:#ca78a6;stroke-width:0.407562;stroke-linecap:round;stroke-linejoin:round;stroke-miterlimit:10;stroke-dasharray:none;stroke-opacity:1"
         id="path110" />
      <path
         d="m 176.766,44.578 c 0,-0.808 -0.661,-1.465 -1.469,-1.465 -0.813,0 -1.469,0.657 -1.469,1.465 0,0.813 0.656,1.469 1.469,1.469 0.808,0 1.469,-0.656 1.469,-1.469"
         style="fill:#ca78a6;fill-opacity:1;fill-rule:nonzero;stroke:none"
         id="path112" />
      <path
         d="m 176.766,44.578 c 0,-0.808 -0.661,-1.465 -1.469,-1.465 -0.809,0 -1.469,0.657 -1.469,1.465 0,0.813 0.66,1.469 1.469,1.469 0.808,0 1.469,-0.656 1.469,-1.469"
         style="fill:none;stroke:#ca78a6;stroke-width:0.407562;stroke-linecap:round;stroke-linejoin:round;stroke-miterlimit:10;stroke-dasharray:none;stroke-opacity:1"
         id="path114" />
      <path
         d="m 132.852,71.816 c 0,-0.812 -0.657,-1.468 -1.469,-1.468 -0.809,0 -1.469,0.656 -1.469,1.468 0,0.809 0.66,1.465 1.469,1.465 0.812,0 1.469,-0.656 1.469,-1.465"
         style="fill:#ca78a6;fill-opacity:1;fill-rule:nonzero;stroke:none"
         id="path116" />
      <path
         d="m 132.852,71.816 c 0,-0.812 -0.661,-1.468 -1.469,-1.468 -0.809,0 -1.469,0.656 -1.469,1.468 0,0.809 0.66,1.465 1.469,1.465 0.808,0 1.469,-0.656 1.469,-1.465"
         style="fill:none;stroke:#ca78a6;stroke-width:0.407562;stroke-linecap:round;stroke-linejoin:round;stroke-miterlimit:10;stroke-dasharray:none;stroke-opacity:1"
         id="path118" />
      <path
         d="m 150.086,78.168 c 0,-0.809 -0.656,-1.469 -1.465,-1.469 -0.812,0 -1.469,0.66 -1.469,1.469 0,0.809 0.657,1.469 1.469,1.469 0.809,0 1.465,-0.66 1.465,-1.469"
         style="fill:#ca78a6;fill-opacity:1;fill-rule:nonzero;stroke:#ca78a6;stroke-width:0.407562;stroke-linecap:round;stroke-linejoin:round;stroke-miterlimit:10;stroke-dasharray:none;stroke-opacity:1"
         id="path120" />
      <path
         d="m 140.75,68.957 c 0,-0.809 -0.656,-1.469 -1.465,-1.469 -0.812,0 -1.469,0.66 -1.469,1.469 0,0.809 0.657,1.469 1.469,1.469 0.809,0 1.465,-0.66 1.465,-1.469"
         style="fill:#ca78a6;fill-opacity:1;fill-rule:nonzero;stroke:#ca78a6;stroke-width:0.407562;stroke-linecap:round;stroke-linejoin:round;stroke-miterlimit:10;stroke-dasharray:none;stroke-opacity:1"
         id="path122" />
      <path
         d="m 66.402,124.352 c 0,-0.809 -0.656,-1.465 -1.468,-1.465 -0.809,0 -1.465,0.656 -1.465,1.465 0,0.812 0.656,1.468 1.465,1.468 0.812,0 1.468,-0.656 1.468,-1.468"
         style="fill:#ca78a6;fill-opacity:1;fill-rule:nonzero;stroke:#ca78a6;stroke-width:0.407562;stroke-linecap:round;stroke-linejoin:round;stroke-miterlimit:10;stroke-dasharray:none;stroke-opacity:1"
         id="path124" />
      <path
         d="m 144.535,51.691 c 0,-0.808 -0.66,-1.464 -1.469,-1.464 -0.808,0 -1.468,0.656 -1.468,1.464 0,0.813 0.66,1.469 1.468,1.469 0.809,0 1.469,-0.656 1.469,-1.469"
         style="fill:#ca78a6;fill-opacity:1;fill-rule:nonzero;stroke:#ca78a6;stroke-width:0.407562;stroke-linecap:round;stroke-linejoin:round;stroke-miterlimit:10;stroke-dasharray:none;stroke-opacity:1"
         id="path126" />
      <path
         d="m 121.723,54.5 c 0,-0.809 -0.661,-1.465 -1.469,-1.465 -0.809,0 -1.469,0.656 -1.469,1.465 0,0.812 0.66,1.469 1.469,1.469 0.808,0 1.469,-0.657 1.469,-1.469"
         style="fill:#ca78a6;fill-opacity:1;fill-rule:nonzero;stroke:#ca78a6;stroke-width:0.407562;stroke-linecap:round;stroke-linejoin:round;stroke-miterlimit:10;stroke-dasharray:none;stroke-opacity:1"
         id="path128" />
      <path
         d="m 171.078,64.945 c 0,-0.808 -0.656,-1.465 -1.465,-1.465 -0.812,0 -1.468,0.657 -1.468,1.465 0,0.813 0.656,1.469 1.468,1.469 0.809,0 1.465,-0.656 1.465,-1.469"
         style="fill:#ca78a6;fill-opacity:1;fill-rule:nonzero;stroke:#ca78a6;stroke-width:0.407562;stroke-linecap:round;stroke-linejoin:round;stroke-miterlimit:10;stroke-dasharray:none;stroke-opacity:1"
         id="path130" />
      <path
         d="m 128.941,94.121 c 0,-0.809 -0.656,-1.465 -1.464,-1.465 -0.813,0 -1.469,0.656 -1.469,1.465 0,0.813 0.656,1.469 1.469,1.469 0.808,0 1.464,-0.656 1.464,-1.469"
         style="fill:#ca78a6;fill-opacity:1;fill-rule:nonzero;stroke:#ca78a6;stroke-width:0.407562;stroke-linecap:round;stroke-linejoin:round;stroke-miterlimit:10;stroke-dasharray:none;stroke-opacity:1"
         id="path132" />
      <path
         d="m 162.266,55.73 c 0,-0.812 -0.657,-1.468 -1.469,-1.468 -0.809,0 -1.465,0.656 -1.465,1.468 0,0.809 0.656,1.465 1.465,1.465 0.812,0 1.469,-0.656 1.469,-1.465"
         style="fill:#ca78a6;fill-opacity:1;fill-rule:nonzero;stroke:#ca78a6;stroke-width:0.407562;stroke-linecap:round;stroke-linejoin:round;stroke-miterlimit:10;stroke-dasharray:none;stroke-opacity:1"
         id="path134" />
      <path
         d="m 230.609,34.027 c 0,-0.812 -0.656,-1.468 -1.464,-1.468 -0.813,0 -1.469,0.656 -1.469,1.468 0,0.809 0.656,1.465 1.469,1.465 0.808,0 1.464,-0.656 1.464,-1.465"
         style="fill:#ca78a6;fill-opacity:1;fill-rule:nonzero;stroke:#ca78a6;stroke-width:0.407562;stroke-linecap:round;stroke-linejoin:round;stroke-miterlimit:10;stroke-dasharray:none;stroke-opacity:1"
         id="path136" />
      <path
         d="m 116.324,51.023 c 0,-0.808 -0.656,-1.464 -1.465,-1.464 -0.812,0 -1.468,0.656 -1.468,1.464 0,0.813 0.656,1.469 1.468,1.469 0.809,0 1.465,-0.656 1.465,-1.469"
         style="fill:#ca78a6;fill-opacity:1;fill-rule:nonzero;stroke:#ca78a6;stroke-width:0.407562;stroke-linecap:round;stroke-linejoin:round;stroke-miterlimit:10;stroke-dasharray:none;stroke-opacity:1"
         id="path138" />
      <path
         d="m 97.621,94.379 c 0,-0.813 -0.656,-1.469 -1.469,-1.469 -0.808,0 -1.464,0.656 -1.464,1.469 0,0.809 0.656,1.465 1.464,1.465 0.813,0 1.469,-0.656 1.469,-1.465"
         style="fill:#ca78a6;fill-opacity:1;fill-rule:nonzero;stroke:#ca78a6;stroke-width:0.407562;stroke-linecap:round;stroke-linejoin:round;stroke-miterlimit:10;stroke-dasharray:none;stroke-opacity:1"
         id="path140" />
      <path
         d="m 168.305,51.219 c 0,-0.809 -0.66,-1.465 -1.469,-1.465 -0.813,0 -1.469,0.656 -1.469,1.465 0,0.812 0.656,1.469 1.469,1.469 0.809,0 1.469,-0.657 1.469,-1.469"
         style="fill:#ca78a6;fill-opacity:1;fill-rule:nonzero;stroke:#ca78a6;stroke-width:0.407562;stroke-linecap:round;stroke-linejoin:round;stroke-miterlimit:10;stroke-dasharray:none;stroke-opacity:1"
         id="path142" />
      <path
         d="m 126.77,79.895 c 0,-0.809 -0.657,-1.465 -1.469,-1.465 -0.809,0 -1.465,0.656 -1.465,1.465 0,0.812 0.656,1.468 1.465,1.468 0.812,0 1.469,-0.656 1.469,-1.468"
         style="fill:#ca78a6;fill-opacity:1;fill-rule:nonzero;stroke:#ca78a6;stroke-width:0.407562;stroke-linecap:round;stroke-linejoin:round;stroke-miterlimit:10;stroke-dasharray:none;stroke-opacity:1"
         id="path144" />
      <path
         d="m 126.645,90.91 c 0,-0.808 -0.657,-1.465 -1.469,-1.465 -0.809,0 -1.465,0.657 -1.465,1.465 0,0.813 0.656,1.469 1.465,1.469 0.812,0 1.469,-0.656 1.469,-1.469"
         style="fill:#ca78a6;fill-opacity:1;fill-rule:nonzero;stroke:#ca78a6;stroke-width:0.407562;stroke-linecap:round;stroke-linejoin:round;stroke-miterlimit:10;stroke-dasharray:none;stroke-opacity:1"
         id="path146" />
      <path
         d="m 200.902,43.211 c 0,-0.813 -0.656,-1.469 -1.468,-1.469 -0.809,0 -1.465,0.656 -1.465,1.469 0,0.809 0.656,1.465 1.465,1.465 0.812,0 1.468,-0.656 1.468,-1.465"
         style="fill:#ca78a6;fill-opacity:1;fill-rule:nonzero;stroke:#ca78a6;stroke-width:0.407562;stroke-linecap:round;stroke-linejoin:round;stroke-miterlimit:10;stroke-dasharray:none;stroke-opacity:1"
         id="path148" />
      <path
         d="m 171.945,84.973 c 0,-0.813 -0.66,-1.469 -1.468,-1.469 -0.809,0 -1.469,0.656 -1.469,1.469 0,0.808 0.66,1.465 1.469,1.465 0.808,0 1.468,-0.657 1.468,-1.465"
         style="fill:#ca78a6;fill-opacity:1;fill-rule:nonzero;stroke:#ca78a6;stroke-width:0.407562;stroke-linecap:round;stroke-linejoin:round;stroke-miterlimit:10;stroke-dasharray:none;stroke-opacity:1"
         id="path150" />
      <path
         d="m 218.375,16.961 c 0,-0.809 -0.66,-1.465 -1.469,-1.465 -0.808,0 -1.468,0.656 -1.468,1.465 0,0.812 0.66,1.469 1.468,1.469 0.809,0 1.469,-0.657 1.469,-1.469"
         style="fill:#ca78a6;fill-opacity:1;fill-rule:nonzero;stroke:#ca78a6;stroke-width:0.407562;stroke-linecap:round;stroke-linejoin:round;stroke-miterlimit:10;stroke-dasharray:none;stroke-opacity:1"
         id="path152" />
      <path
         d="m 121.211,80.695 c 0,-0.812 -0.656,-1.468 -1.469,-1.468 -0.808,0 -1.465,0.656 -1.465,1.468 0,0.809 0.657,1.465 1.465,1.465 0.813,0 1.469,-0.656 1.469,-1.465"
         style="fill:#ca78a6;fill-opacity:1;fill-rule:nonzero;stroke:#ca78a6;stroke-width:0.407562;stroke-linecap:round;stroke-linejoin:round;stroke-miterlimit:10;stroke-dasharray:none;stroke-opacity:1"
         id="path154" />
      <path
         d="m 181.504,24.027 c 0,-0.808 -0.66,-1.468 -1.469,-1.468 -0.808,0 -1.469,0.66 -1.469,1.468 0,0.809 0.661,1.469 1.469,1.469 0.809,0 1.469,-0.66 1.469,-1.469"
         style="fill:#ca78a6;fill-opacity:1;fill-rule:nonzero;stroke:#ca78a6;stroke-width:0.407562;stroke-linecap:round;stroke-linejoin:round;stroke-miterlimit:10;stroke-dasharray:none;stroke-opacity:1"
         id="path156" />
      <path
         d="m 164.406,56.074 c 0,-0.812 -0.656,-1.469 -1.468,-1.469 -0.809,0 -1.465,0.657 -1.465,1.469 0,0.809 0.656,1.465 1.465,1.465 0.812,0 1.468,-0.656 1.468,-1.465"
         style="fill:#ca78a6;fill-opacity:1;fill-rule:nonzero;stroke:#ca78a6;stroke-width:0.407562;stroke-linecap:round;stroke-linejoin:round;stroke-miterlimit:10;stroke-dasharray:none;stroke-opacity:1"
         id="path158" />
      <path
         d="m 114.207,96.211 c 0,-0.813 -0.66,-1.469 -1.469,-1.469 -0.808,0 -1.468,0.656 -1.468,1.469 0,0.809 0.66,1.465 1.468,1.465 0.809,0 1.469,-0.656 1.469,-1.465"
         style="fill:#ca78a6;fill-opacity:1;fill-rule:nonzero;stroke:#ca78a6;stroke-width:0.407562;stroke-linecap:round;stroke-linejoin:round;stroke-miterlimit:10;stroke-dasharray:none;stroke-opacity:1"
         id="path160" />
      <path
         d="m 127.281,71.379 c 0,-0.809 -0.656,-1.465 -1.469,-1.465 -0.808,0 -1.464,0.656 -1.464,1.465 0,0.812 0.656,1.469 1.464,1.469 0.813,0 1.469,-0.657 1.469,-1.469"
         style="fill:#ca78a6;fill-opacity:1;fill-rule:nonzero;stroke:#ca78a6;stroke-width:0.407562;stroke-linecap:round;stroke-linejoin:round;stroke-miterlimit:10;stroke-dasharray:none;stroke-opacity:1"
         id="path162" />
      <path
         d="m 157.445,79.332 c 0,-0.812 -0.656,-1.469 -1.468,-1.469 -0.809,0 -1.465,0.657 -1.465,1.469 0,0.809 0.656,1.465 1.465,1.465 0.812,0 1.468,-0.656 1.468,-1.465"
         style="fill:#ca78a6;fill-opacity:1;fill-rule:nonzero;stroke:#ca78a6;stroke-width:0.407562;stroke-linecap:round;stroke-linejoin:round;stroke-miterlimit:10;stroke-dasharray:none;stroke-opacity:1"
         id="path164" />
      <path
         d="m 171.281,77.449 c 0,-0.808 -0.656,-1.465 -1.469,-1.465 -0.808,0 -1.464,0.657 -1.464,1.465 0,0.813 0.656,1.469 1.464,1.469 0.813,0 1.469,-0.656 1.469,-1.469"
         style="fill:#ca78a6;fill-opacity:1;fill-rule:nonzero;stroke:#ca78a6;stroke-width:0.407562;stroke-linecap:round;stroke-linejoin:round;stroke-miterlimit:10;stroke-dasharray:none;stroke-opacity:1"
         id="path166" />
      <path
         d="m 146.703,66.902 c 0,-0.808 -0.656,-1.468 -1.469,-1.468 -0.808,0 -1.464,0.66 -1.464,1.468 0,0.813 0.656,1.469 1.464,1.469 0.813,0 1.469,-0.656 1.469,-1.469"
         style="fill:#ca78a6;fill-opacity:1;fill-rule:nonzero;stroke:none"
         id="path168" />
      <path
         d="m 146.703,66.902 c 0,-0.808 -0.656,-1.468 -1.469,-1.468 -0.808,0 -1.468,0.66 -1.468,1.468 0,0.813 0.66,1.469 1.468,1.469 0.813,0 1.469,-0.656 1.469,-1.469"
         style="fill:none;stroke:#ca78a6;stroke-width:0.407562;stroke-linecap:round;stroke-linejoin:round;stroke-miterlimit:10;stroke-dasharray:none;stroke-opacity:1"
         id="path170" />
      <path
         d="m 190.691,56.926 c 0,-0.809 -0.656,-1.469 -1.468,-1.469 -0.809,0 -1.465,0.66 -1.465,1.469 0,0.808 0.656,1.469 1.465,1.469 0.812,0 1.468,-0.661 1.468,-1.469"
         style="fill:#ca78a6;fill-opacity:1;fill-rule:nonzero;stroke:#ca78a6;stroke-width:0.407562;stroke-linecap:round;stroke-linejoin:round;stroke-miterlimit:10;stroke-dasharray:none;stroke-opacity:1"
         id="path172" />
      <path
         d="m 136.066,75.961 c 0,-0.809 -0.656,-1.465 -1.464,-1.465 -0.813,0 -1.469,0.656 -1.469,1.465 0,0.812 0.656,1.469 1.469,1.469 0.808,0 1.464,-0.657 1.464,-1.469"
         style="fill:#ca78a6;fill-opacity:1;fill-rule:nonzero;stroke:#ca78a6;stroke-width:0.407562;stroke-linecap:round;stroke-linejoin:round;stroke-miterlimit:10;stroke-dasharray:none;stroke-opacity:1"
         id="path174" />
      <path
         d="m 141.652,72.332 c 0,-0.812 -0.656,-1.469 -1.464,-1.469 -0.813,0 -1.469,0.657 -1.469,1.469 0,0.809 0.656,1.465 1.469,1.465 0.808,0 1.464,-0.656 1.464,-1.465"
         style="fill:#ca78a6;fill-opacity:1;fill-rule:nonzero;stroke:#ca78a6;stroke-width:0.407562;stroke-linecap:round;stroke-linejoin:round;stroke-miterlimit:10;stroke-dasharray:none;stroke-opacity:1"
         id="path176" />
      <path
         d="m 174.301,66.609 c 0,-0.808 -0.656,-1.468 -1.465,-1.468 -0.813,0 -1.469,0.66 -1.469,1.468 0,0.809 0.656,1.469 1.469,1.469 0.809,0 1.465,-0.66 1.465,-1.469"
         style="fill:#ca78a6;fill-opacity:1;fill-rule:nonzero;stroke:#ca78a6;stroke-width:0.407562;stroke-linecap:round;stroke-linejoin:round;stroke-miterlimit:10;stroke-dasharray:none;stroke-opacity:1"
         id="path178" />
      <path
         d="m 216.285,46.828 c 0,-0.808 -0.656,-1.465 -1.465,-1.465 -0.812,0 -1.468,0.657 -1.468,1.465 0,0.813 0.656,1.469 1.468,1.469 0.809,0 1.465,-0.656 1.465,-1.469"
         style="fill:#ca78a6;fill-opacity:1;fill-rule:nonzero;stroke:#ca78a6;stroke-width:0.407562;stroke-linecap:round;stroke-linejoin:round;stroke-miterlimit:10;stroke-dasharray:none;stroke-opacity:1"
         id="path180" />
      <path
         d="m 134.129,78.797 c 0,-0.809 -0.66,-1.465 -1.469,-1.465 -0.808,0 -1.469,0.656 -1.469,1.465 0,0.812 0.661,1.469 1.469,1.469 0.809,0 1.469,-0.657 1.469,-1.469"
         style="fill:#ca78a6;fill-opacity:1;fill-rule:nonzero;stroke:#ca78a6;stroke-width:0.407562;stroke-linecap:round;stroke-linejoin:round;stroke-miterlimit:10;stroke-dasharray:none;stroke-opacity:1"
         id="path182" />
      <path
         d="m 214.98,22.621 c 0,-0.812 -0.656,-1.469 -1.464,-1.469 -0.813,0 -1.469,0.657 -1.469,1.469 0,0.809 0.656,1.465 1.469,1.465 0.808,0 1.464,-0.656 1.464,-1.465"
         style="fill:#ca78a6;fill-opacity:1;fill-rule:nonzero;stroke:#ca78a6;stroke-width:0.407562;stroke-linecap:round;stroke-linejoin:round;stroke-miterlimit:10;stroke-dasharray:none;stroke-opacity:1"
         id="path184" />
      <path
         d="m 118.766,105.652 c 0,-0.808 -0.657,-1.464 -1.469,-1.464 -0.809,0 -1.465,0.656 -1.465,1.464 0,0.813 0.656,1.469 1.465,1.469 0.812,0 1.469,-0.656 1.469,-1.469"
         style="fill:#ca78a6;fill-opacity:1;fill-rule:nonzero;stroke:#ca78a6;stroke-width:0.407562;stroke-linecap:round;stroke-linejoin:round;stroke-miterlimit:10;stroke-dasharray:none;stroke-opacity:1"
         id="path186" />
      <path
         d="m 225.48,26.047 c 0,-0.809 -0.656,-1.465 -1.464,-1.465 -0.813,0 -1.469,0.656 -1.469,1.465 0,0.812 0.656,1.469 1.469,1.469 0.808,0 1.464,-0.657 1.464,-1.469"
         style="fill:#ca78a6;fill-opacity:1;fill-rule:nonzero;stroke:#ca78a6;stroke-width:0.407562;stroke-linecap:round;stroke-linejoin:round;stroke-miterlimit:10;stroke-dasharray:none;stroke-opacity:1"
         id="path188" />
      <path
         d="m 104.148,86.062 c 0,-0.808 -0.66,-1.464 -1.468,-1.464 -0.809,0 -1.469,0.656 -1.469,1.464 0,0.813 0.66,1.469 1.469,1.469 0.808,0 1.468,-0.656 1.468,-1.469"
         style="fill:#ca78a6;fill-opacity:1;fill-rule:nonzero;stroke:#ca78a6;stroke-width:0.407562;stroke-linecap:round;stroke-linejoin:round;stroke-miterlimit:10;stroke-dasharray:none;stroke-opacity:1"
         id="path190" />
      <path
         d="m 171.258,44.547 c 0,-0.809 -0.656,-1.469 -1.465,-1.469 -0.813,0 -1.469,0.66 -1.469,1.469 0,0.808 0.656,1.469 1.469,1.469 0.809,0 1.465,-0.661 1.465,-1.469"
         style="fill:#ca78a6;fill-opacity:1;fill-rule:nonzero;stroke:#ca78a6;stroke-width:0.407562;stroke-linecap:round;stroke-linejoin:round;stroke-miterlimit:10;stroke-dasharray:none;stroke-opacity:1"
         id="path192" />
      <path
         d="m 101.945,96.137 c 0,-0.809 -0.656,-1.465 -1.465,-1.465 -0.812,0 -1.468,0.656 -1.468,1.465 0,0.812 0.656,1.468 1.468,1.468 0.809,0 1.465,-0.656 1.465,-1.468"
         style="fill:#ca78a6;fill-opacity:1;fill-rule:nonzero;stroke:#ca78a6;stroke-width:0.407562;stroke-linecap:round;stroke-linejoin:round;stroke-miterlimit:10;stroke-dasharray:none;stroke-opacity:1"
         id="path194" />
      <path
         d="m 254.305,15.848 c 0,-0.809 -0.657,-1.465 -1.469,-1.465 -0.809,0 -1.465,0.656 -1.465,1.465 0,0.812 0.656,1.468 1.465,1.468 0.812,0 1.469,-0.656 1.469,-1.468"
         style="fill:#ca78a6;fill-opacity:1;fill-rule:nonzero;stroke:#ca78a6;stroke-width:0.407562;stroke-linecap:round;stroke-linejoin:round;stroke-miterlimit:10;stroke-dasharray:none;stroke-opacity:1"
         id="path196" />
      <path
         d="m 177.52,52.949 c 0,-0.812 -0.657,-1.469 -1.469,-1.469 -0.809,0 -1.465,0.657 -1.465,1.469 0,0.809 0.656,1.465 1.465,1.465 0.812,0 1.469,-0.656 1.469,-1.465"
         style="fill:#ca78a6;fill-opacity:1;fill-rule:nonzero;stroke:#ca78a6;stroke-width:0.407562;stroke-linecap:round;stroke-linejoin:round;stroke-miterlimit:10;stroke-dasharray:none;stroke-opacity:1"
         id="path198" />
      <path
         d="m 183.617,61.621 c 0,-0.812 -0.656,-1.469 -1.469,-1.469 -0.808,0 -1.464,0.657 -1.464,1.469 0,0.809 0.656,1.469 1.464,1.469 0.813,0 1.469,-0.66 1.469,-1.469"
         style="fill:#ca78a6;fill-opacity:1;fill-rule:nonzero;stroke:#ca78a6;stroke-width:0.407562;stroke-linecap:round;stroke-linejoin:round;stroke-miterlimit:10;stroke-dasharray:none;stroke-opacity:1"
         id="path200" />
      <path
         d="m 239.688,10.734 c 0,-0.808 -0.661,-1.464 -1.469,-1.464 -0.809,0 -1.469,0.656 -1.469,1.464 0,0.813 0.66,1.469 1.469,1.469 0.808,0 1.469,-0.656 1.469,-1.469"
         style="fill:#ca78a6;fill-opacity:1;fill-rule:nonzero;stroke:#ca78a6;stroke-width:0.407562;stroke-linecap:round;stroke-linejoin:round;stroke-miterlimit:10;stroke-dasharray:none;stroke-opacity:1"
         id="path202" />
      <path
         d="m 191.418,33.809 c 0,-0.809 -0.656,-1.469 -1.465,-1.469 -0.812,0 -1.469,0.66 -1.469,1.469 0,0.808 0.657,1.468 1.469,1.468 0.809,0 1.465,-0.66 1.465,-1.468"
         style="fill:#ca78a6;fill-opacity:1;fill-rule:nonzero;stroke:#ca78a6;stroke-width:0.407562;stroke-linecap:round;stroke-linejoin:round;stroke-miterlimit:10;stroke-dasharray:none;stroke-opacity:1"
         id="path204" />
      <path
         d="m 164.973,52.617 c 0,-0.812 -0.657,-1.469 -1.469,-1.469 -0.809,0 -1.465,0.657 -1.465,1.469 0,0.809 0.656,1.465 1.465,1.465 0.812,0 1.469,-0.656 1.469,-1.465"
         style="fill:#ca78a6;fill-opacity:1;fill-rule:nonzero;stroke:#ca78a6;stroke-width:0.407562;stroke-linecap:round;stroke-linejoin:round;stroke-miterlimit:10;stroke-dasharray:none;stroke-opacity:1"
         id="path206" />
      <path
         d="m 198.57,24.43 c 0,-0.813 -0.656,-1.469 -1.465,-1.469 -0.812,0 -1.468,0.656 -1.468,1.469 0,0.808 0.656,1.468 1.468,1.468 0.809,0 1.465,-0.66 1.465,-1.468"
         style="fill:#ca78a6;fill-opacity:1;fill-rule:nonzero;stroke:#ca78a6;stroke-width:0.407562;stroke-linecap:round;stroke-linejoin:round;stroke-miterlimit:10;stroke-dasharray:none;stroke-opacity:1"
         id="path208" />
      <path
         d="m 171.598,51.555 c 0,-0.809 -0.66,-1.465 -1.469,-1.465 -0.809,0 -1.469,0.656 -1.469,1.465 0,0.812 0.66,1.468 1.469,1.468 0.809,0 1.469,-0.656 1.469,-1.468"
         style="fill:#ca78a6;fill-opacity:1;fill-rule:nonzero;stroke:#ca78a6;stroke-width:0.407562;stroke-linecap:round;stroke-linejoin:round;stroke-miterlimit:10;stroke-dasharray:none;stroke-opacity:1"
         id="path210" />
      <path
         d="m 198.828,64.988 c 0,-0.808 -0.66,-1.465 -1.469,-1.465 -0.808,0 -1.468,0.657 -1.468,1.465 0,0.813 0.66,1.469 1.468,1.469 0.809,0 1.469,-0.656 1.469,-1.469"
         style="fill:#ca78a6;fill-opacity:1;fill-rule:nonzero;stroke:#ca78a6;stroke-width:0.407562;stroke-linecap:round;stroke-linejoin:round;stroke-miterlimit:10;stroke-dasharray:none;stroke-opacity:1"
         id="path212" />
      <path
         d="m 182.137,62.738 c 0,-0.808 -0.657,-1.465 -1.465,-1.465 -0.813,0 -1.469,0.657 -1.469,1.465 0,0.813 0.656,1.469 1.469,1.469 0.808,0 1.465,-0.656 1.465,-1.469"
         style="fill:#ca78a6;fill-opacity:1;fill-rule:nonzero;stroke:#ca78a6;stroke-width:0.407562;stroke-linecap:round;stroke-linejoin:round;stroke-miterlimit:10;stroke-dasharray:none;stroke-opacity:1"
         id="path214" />
      <path
         d="m 171.293,77.031 c 0,-0.808 -0.66,-1.465 -1.469,-1.465 -0.808,0 -1.469,0.657 -1.469,1.465 0,0.813 0.661,1.469 1.469,1.469 0.809,0 1.469,-0.656 1.469,-1.469"
         style="fill:#ca78a6;fill-opacity:1;fill-rule:nonzero;stroke:#ca78a6;stroke-width:0.407562;stroke-linecap:round;stroke-linejoin:round;stroke-miterlimit:10;stroke-dasharray:none;stroke-opacity:1"
         id="path216" />
      <path
         d="m 161.242,71.023 c 0,-0.812 -0.656,-1.468 -1.465,-1.468 -0.812,0 -1.468,0.656 -1.468,1.468 0,0.809 0.656,1.465 1.468,1.465 0.809,0 1.465,-0.656 1.465,-1.465"
         style="fill:#ca78a6;fill-opacity:1;fill-rule:nonzero;stroke:#ca78a6;stroke-width:0.407562;stroke-linecap:round;stroke-linejoin:round;stroke-miterlimit:10;stroke-dasharray:none;stroke-opacity:1"
         id="path218" />
      <path
         d="M 41.555,143.406 H 286.453"
         style="fill:none;stroke:#000000;stroke-width:0.407562;stroke-linecap:round;stroke-linejoin:round;stroke-miterlimit:10;stroke-dasharray:none;stroke-opacity:1"
         id="path220" />
      <path
         d="m 41.555,143.406 v 3.91"
         style="fill:none;stroke:#000000;stroke-width:0.407562;stroke-linecap:round;stroke-linejoin:round;stroke-miterlimit:10;stroke-dasharray:none;stroke-opacity:1"
         id="path222" />
      <path
         d="m 82.371,143.406 v 3.91"
         style="fill:none;stroke:#000000;stroke-width:0.407562;stroke-linecap:round;stroke-linejoin:round;stroke-miterlimit:10;stroke-dasharray:none;stroke-opacity:1"
         id="path224" />
      <path
         d="m 123.188,143.406 v 3.91"
         style="fill:none;stroke:#000000;stroke-width:0.407562;stroke-linecap:round;stroke-linejoin:round;stroke-miterlimit:10;stroke-dasharray:none;stroke-opacity:1"
         id="path226" />
      <path
         d="m 164.004,143.406 v 3.91"
         style="fill:none;stroke:#000000;stroke-width:0.407562;stroke-linecap:round;stroke-linejoin:round;stroke-miterlimit:10;stroke-dasharray:none;stroke-opacity:1"
         id="path228" />
      <path
         d="m 204.82,143.406 v 3.91"
         style="fill:none;stroke:#000000;stroke-width:0.407562;stroke-linecap:round;stroke-linejoin:round;stroke-miterlimit:10;stroke-dasharray:none;stroke-opacity:1"
         id="path230" />
      <path
         d="m 245.637,143.406 v 3.91"
         style="fill:none;stroke:#000000;stroke-width:0.407562;stroke-linecap:round;stroke-linejoin:round;stroke-miterlimit:10;stroke-dasharray:none;stroke-opacity:1"
         id="path232" />
      <path
         d="m 286.453,143.406 v 3.91"
         style="fill:none;stroke:#000000;stroke-width:0.407562;stroke-linecap:round;stroke-linejoin:round;stroke-miterlimit:10;stroke-dasharray:none;stroke-opacity:1"
         id="path234" />
      <path
         d="m 40.352,157.492 h -0.563 v -3.656 c -0.148,0.137 -0.328,0.273 -0.547,0.406 -0.219,0.125 -0.422,0.227 -0.609,0.297 v -0.562 c 0.32,-0.145 0.601,-0.321 0.844,-0.532 0.238,-0.218 0.41,-0.429 0.515,-0.64 h 0.36 z"
         style="fill:#000000;fill-opacity:1;fill-rule:nonzero;stroke:none"
         id="path236" />
      <path
         d="m 41.824,155.195 c 0,-0.55 0.055,-0.992 0.172,-1.328 0.113,-0.344 0.281,-0.601 0.5,-0.781 0.227,-0.188 0.516,-0.281 0.859,-0.281 0.25,0 0.469,0.054 0.657,0.156 0.187,0.105 0.343,0.25 0.468,0.437 0.125,0.188 0.219,0.418 0.282,0.688 0.07,0.273 0.109,0.641 0.109,1.109 0,0.543 -0.059,0.985 -0.172,1.328 -0.117,0.336 -0.289,0.594 -0.515,0.782 -0.219,0.179 -0.496,0.265 -0.829,0.265 -0.46,0 -0.812,-0.16 -1.062,-0.484 -0.313,-0.383 -0.469,-1.016 -0.469,-1.891 z m 0.594,0 c 0,0.762 0.086,1.274 0.266,1.532 0.175,0.25 0.398,0.375 0.671,0.375 0.258,0 0.477,-0.125 0.657,-0.375 0.176,-0.258 0.265,-0.77 0.265,-1.532 0,-0.769 -0.089,-1.281 -0.265,-1.531 -0.18,-0.25 -0.403,-0.375 -0.672,-0.375 -0.262,0 -0.469,0.109 -0.625,0.328 -0.199,0.281 -0.297,0.809 -0.297,1.578 z"
         style="fill:#000000;fill-opacity:1;fill-rule:nonzero;stroke:none"
         id="path238" />
      <path
         d="m 82.027,156.945 v 0.547 h -3.078 c -0.011,-0.133 0.008,-0.265 0.063,-0.39 0.07,-0.219 0.195,-0.426 0.375,-0.625 0.175,-0.207 0.425,-0.442 0.75,-0.704 0.508,-0.414 0.851,-0.742 1.031,-0.984 0.176,-0.25 0.266,-0.484 0.266,-0.703 0,-0.219 -0.086,-0.406 -0.25,-0.563 -0.157,-0.156 -0.368,-0.234 -0.625,-0.234 -0.282,0 -0.508,0.086 -0.672,0.25 -0.168,0.156 -0.25,0.383 -0.25,0.672 l -0.578,-0.047 c 0.031,-0.445 0.175,-0.785 0.437,-1.016 0.27,-0.226 0.625,-0.343 1.063,-0.343 0.445,0 0.8,0.125 1.062,0.375 0.27,0.25 0.406,0.558 0.406,0.922 0,0.187 -0.043,0.375 -0.125,0.562 -0.074,0.18 -0.199,0.367 -0.375,0.563 -0.179,0.199 -0.476,0.468 -0.89,0.812 -0.344,0.293 -0.563,0.492 -0.657,0.594 -0.093,0.105 -0.171,0.211 -0.234,0.312 z"
         style="fill:#000000;fill-opacity:1;fill-rule:nonzero;stroke:none"
         id="path240" />
      <path
         d="m 82.637,155.195 c 0,-0.55 0.054,-0.992 0.172,-1.328 0.113,-0.344 0.281,-0.601 0.5,-0.781 0.226,-0.188 0.515,-0.281 0.859,-0.281 0.25,0 0.469,0.054 0.656,0.156 0.188,0.105 0.344,0.25 0.469,0.437 0.125,0.188 0.219,0.418 0.281,0.688 0.071,0.273 0.11,0.641 0.11,1.109 0,0.543 -0.059,0.985 -0.172,1.328 -0.117,0.336 -0.289,0.594 -0.516,0.782 -0.219,0.179 -0.496,0.265 -0.828,0.265 -0.461,0 -0.813,-0.16 -1.063,-0.484 -0.312,-0.383 -0.468,-1.016 -0.468,-1.891 z m 0.593,0 c 0,0.762 0.086,1.274 0.266,1.532 0.176,0.25 0.399,0.375 0.672,0.375 0.258,0 0.477,-0.125 0.656,-0.375 0.176,-0.258 0.266,-0.77 0.266,-1.532 0,-0.769 -0.09,-1.281 -0.266,-1.531 -0.179,-0.25 -0.402,-0.375 -0.672,-0.375 -0.261,0 -0.468,0.109 -0.625,0.328 -0.199,0.281 -0.297,0.809 -0.297,1.578 z"
         style="fill:#000000;fill-opacity:1;fill-rule:nonzero;stroke:none"
         id="path242" />
      <path
         d="m 119.844,156.258 0.562,-0.078 c 0.063,0.324 0.172,0.558 0.328,0.703 0.164,0.148 0.364,0.219 0.594,0.219 0.258,0 0.484,-0.094 0.672,-0.282 0.188,-0.187 0.281,-0.414 0.281,-0.687 0,-0.27 -0.09,-0.488 -0.265,-0.656 -0.168,-0.165 -0.383,-0.25 -0.641,-0.25 -0.117,0 -0.25,0.023 -0.406,0.062 l 0.062,-0.5 c 0.039,0 0.071,0 0.094,0 0.238,0 0.457,-0.062 0.656,-0.187 0.196,-0.133 0.297,-0.332 0.297,-0.594 0,-0.207 -0.074,-0.379 -0.219,-0.516 -0.148,-0.144 -0.328,-0.219 -0.547,-0.219 -0.23,0 -0.417,0.075 -0.562,0.219 -0.148,0.137 -0.242,0.344 -0.281,0.625 l -0.578,-0.094 c 0.07,-0.382 0.234,-0.679 0.484,-0.89 0.25,-0.219 0.555,-0.328 0.922,-0.328 0.25,0 0.484,0.058 0.703,0.172 0.219,0.105 0.379,0.25 0.484,0.437 0.114,0.188 0.172,0.391 0.172,0.609 0,0.2 -0.054,0.383 -0.156,0.547 -0.105,0.168 -0.266,0.297 -0.484,0.391 0.281,0.062 0.492,0.199 0.64,0.406 0.156,0.199 0.235,0.449 0.235,0.75 0,0.406 -0.153,0.75 -0.453,1.031 -0.293,0.282 -0.668,0.422 -1.126,0.422 -0.406,0 -0.746,-0.117 -1.015,-0.359 -0.274,-0.25 -0.422,-0.566 -0.453,-0.953 z"
         style="fill:#000000;fill-opacity:1;fill-rule:nonzero;stroke:none"
         id="path244" />
      <path
         d="m 123.453,155.195 c 0,-0.55 0.055,-0.992 0.172,-1.328 0.113,-0.344 0.281,-0.601 0.5,-0.781 0.227,-0.188 0.516,-0.281 0.859,-0.281 0.25,0 0.469,0.054 0.657,0.156 0.187,0.105 0.343,0.25 0.468,0.437 0.125,0.188 0.219,0.418 0.282,0.688 0.07,0.273 0.109,0.641 0.109,1.109 0,0.543 -0.059,0.985 -0.172,1.328 -0.117,0.336 -0.289,0.594 -0.516,0.782 -0.218,0.179 -0.496,0.265 -0.828,0.265 -0.461,0 -0.812,-0.16 -1.062,-0.484 -0.313,-0.383 -0.469,-1.016 -0.469,-1.891 z m 0.594,0 c 0,0.762 0.086,1.274 0.265,1.532 0.176,0.25 0.399,0.375 0.672,0.375 0.258,0 0.477,-0.125 0.657,-0.375 0.175,-0.258 0.265,-0.77 0.265,-1.532 0,-0.769 -0.09,-1.281 -0.265,-1.531 -0.18,-0.25 -0.403,-0.375 -0.672,-0.375 -0.262,0 -0.469,0.109 -0.625,0.328 -0.199,0.281 -0.297,0.809 -0.297,1.578 z"
         style="fill:#000000;fill-opacity:1;fill-rule:nonzero;stroke:none"
         id="path246" />
      <path
         d="m 162.488,157.492 v -1.109 h -2.031 v -0.531 l 2.141,-3.016 h 0.453 v 3.016 h 0.64 v 0.531 h -0.64 v 1.109 z m 0,-1.64 v -2.11 l -1.468,2.11 z"
         style="fill:#000000;fill-opacity:1;fill-rule:nonzero;stroke:none"
         id="path248" />
      <path
         d="m 164.27,155.195 c 0,-0.55 0.054,-0.992 0.171,-1.328 0.114,-0.344 0.282,-0.601 0.5,-0.781 0.227,-0.188 0.516,-0.281 0.86,-0.281 0.25,0 0.469,0.054 0.656,0.156 0.188,0.105 0.344,0.25 0.469,0.437 0.125,0.188 0.219,0.418 0.281,0.688 0.07,0.273 0.109,0.641 0.109,1.109 0,0.543 -0.058,0.985 -0.171,1.328 -0.118,0.336 -0.29,0.594 -0.516,0.782 -0.219,0.179 -0.496,0.265 -0.828,0.265 -0.461,0 -0.813,-0.16 -1.063,-0.484 -0.312,-0.383 -0.468,-1.016 -0.468,-1.891 z m 0.593,0 c 0,0.762 0.086,1.274 0.266,1.532 0.176,0.25 0.398,0.375 0.672,0.375 0.258,0 0.476,-0.125 0.656,-0.375 0.176,-0.258 0.266,-0.77 0.266,-1.532 0,-0.769 -0.09,-1.281 -0.266,-1.531 -0.18,-0.25 -0.402,-0.375 -0.672,-0.375 -0.262,0 -0.469,0.109 -0.625,0.328 -0.199,0.281 -0.297,0.809 -0.297,1.578 z"
         style="fill:#000000;fill-opacity:1;fill-rule:nonzero;stroke:none"
         id="path250" />
      <path
         d="m 201.461,156.273 0.609,-0.046 c 0.039,0.293 0.141,0.511 0.297,0.656 0.164,0.148 0.363,0.219 0.594,0.219 0.281,0 0.516,-0.102 0.703,-0.313 0.188,-0.207 0.281,-0.484 0.281,-0.828 0,-0.32 -0.093,-0.578 -0.281,-0.766 -0.18,-0.195 -0.414,-0.297 -0.703,-0.297 -0.188,0 -0.359,0.047 -0.516,0.141 -0.148,0.086 -0.261,0.188 -0.343,0.313 l -0.532,-0.063 0.453,-2.391 h 2.313 v 0.547 h -1.859 l -0.25,1.25 c 0.281,-0.195 0.57,-0.297 0.875,-0.297 0.406,0 0.75,0.141 1.031,0.422 0.281,0.282 0.422,0.649 0.422,1.094 0,0.418 -0.121,0.781 -0.36,1.094 -0.304,0.375 -0.715,0.562 -1.234,0.562 -0.43,0 -0.777,-0.117 -1.047,-0.359 -0.262,-0.238 -0.414,-0.551 -0.453,-0.938 z"
         style="fill:#000000;fill-opacity:1;fill-rule:nonzero;stroke:none"
         id="path252" />
      <path
         d="m 205.086,155.195 c 0,-0.55 0.055,-0.992 0.172,-1.328 0.113,-0.344 0.281,-0.601 0.5,-0.781 0.226,-0.188 0.515,-0.281 0.859,-0.281 0.25,0 0.469,0.054 0.656,0.156 0.188,0.105 0.344,0.25 0.469,0.437 0.125,0.188 0.219,0.418 0.281,0.688 0.071,0.273 0.11,0.641 0.11,1.109 0,0.543 -0.059,0.985 -0.172,1.328 -0.117,0.336 -0.289,0.594 -0.516,0.782 -0.218,0.179 -0.496,0.265 -0.828,0.265 -0.461,0 -0.812,-0.16 -1.062,-0.484 -0.313,-0.383 -0.469,-1.016 -0.469,-1.891 z m 0.594,0 c 0,0.762 0.086,1.274 0.265,1.532 0.176,0.25 0.399,0.375 0.672,0.375 0.258,0 0.477,-0.125 0.656,-0.375 0.176,-0.258 0.266,-0.77 0.266,-1.532 0,-0.769 -0.09,-1.281 -0.266,-1.531 -0.179,-0.25 -0.402,-0.375 -0.671,-0.375 -0.262,0 -0.469,0.109 -0.625,0.328 -0.2,0.281 -0.297,0.809 -0.297,1.578 z"
         style="fill:#000000;fill-opacity:1;fill-rule:nonzero;stroke:none"
         id="path254" />
      <path
         d="m 245.246,153.977 -0.562,0.031 c -0.055,-0.219 -0.125,-0.379 -0.219,-0.485 -0.156,-0.164 -0.344,-0.25 -0.563,-0.25 -0.187,0 -0.351,0.055 -0.484,0.157 -0.188,0.136 -0.336,0.328 -0.438,0.578 -0.093,0.25 -0.148,0.609 -0.156,1.078 0.133,-0.207 0.301,-0.363 0.5,-0.469 0.207,-0.101 0.422,-0.156 0.641,-0.156 0.375,0 0.695,0.141 0.969,0.422 0.269,0.281 0.406,0.648 0.406,1.094 0,0.293 -0.063,0.562 -0.188,0.812 -0.125,0.25 -0.304,0.445 -0.531,0.578 -0.219,0.133 -0.469,0.203 -0.75,0.203 -0.469,0 -0.855,-0.172 -1.156,-0.515 -0.305,-0.352 -0.453,-0.938 -0.453,-1.75 0,-0.895 0.164,-1.551 0.5,-1.969 0.289,-0.352 0.679,-0.531 1.172,-0.531 0.363,0 0.66,0.105 0.89,0.312 0.238,0.211 0.379,0.496 0.422,0.86 z m -2.328,2 c 0,0.199 0.039,0.39 0.125,0.578 0.082,0.179 0.195,0.312 0.344,0.406 0.156,0.094 0.316,0.141 0.484,0.141 0.238,0 0.441,-0.098 0.609,-0.297 0.176,-0.196 0.266,-0.461 0.266,-0.797 0,-0.32 -0.09,-0.57 -0.266,-0.75 -0.168,-0.188 -0.382,-0.281 -0.64,-0.281 -0.262,0 -0.481,0.093 -0.656,0.281 -0.18,0.18 -0.266,0.418 -0.266,0.719 z"
         style="fill:#000000;fill-opacity:1;fill-rule:nonzero;stroke:none"
         id="path256" />
      <path
         d="m 245.902,155.195 c 0,-0.55 0.055,-0.992 0.172,-1.328 0.114,-0.344 0.281,-0.601 0.5,-0.781 0.227,-0.188 0.516,-0.281 0.86,-0.281 0.25,0 0.468,0.054 0.656,0.156 0.187,0.105 0.344,0.25 0.469,0.437 0.125,0.188 0.218,0.418 0.281,0.688 0.07,0.273 0.109,0.641 0.109,1.109 0,0.543 -0.058,0.985 -0.172,1.328 -0.117,0.336 -0.289,0.594 -0.515,0.782 -0.219,0.179 -0.496,0.265 -0.828,0.265 -0.461,0 -0.813,-0.16 -1.063,-0.484 -0.312,-0.383 -0.469,-1.016 -0.469,-1.891 z m 0.594,0 c 0,0.762 0.086,1.274 0.266,1.532 0.176,0.25 0.398,0.375 0.672,0.375 0.257,0 0.476,-0.125 0.656,-0.375 0.176,-0.258 0.265,-0.77 0.265,-1.532 0,-0.769 -0.089,-1.281 -0.265,-1.531 -0.18,-0.25 -0.402,-0.375 -0.672,-0.375 -0.262,0 -0.469,0.109 -0.625,0.328 -0.199,0.281 -0.297,0.809 -0.297,1.578 z"
         style="fill:#000000;fill-opacity:1;fill-rule:nonzero;stroke:none"
         id="path258" />
      <path
         d="m 283.141,153.445 v -0.562 h 3.015 v 0.453 c -0.304,0.312 -0.601,0.734 -0.89,1.266 -0.293,0.523 -0.516,1.058 -0.672,1.609 -0.117,0.387 -0.188,0.812 -0.219,1.281 h -0.594 c 0.008,-0.363 0.082,-0.804 0.219,-1.328 0.145,-0.519 0.344,-1.019 0.594,-1.5 0.258,-0.488 0.535,-0.894 0.828,-1.219 z"
         style="fill:#000000;fill-opacity:1;fill-rule:nonzero;stroke:none"
         id="path260" />
      <path
         d="m 286.719,155.195 c 0,-0.55 0.054,-0.992 0.172,-1.328 0.113,-0.344 0.281,-0.601 0.5,-0.781 0.226,-0.188 0.515,-0.281 0.859,-0.281 0.25,0 0.469,0.054 0.656,0.156 0.188,0.105 0.344,0.25 0.469,0.437 0.125,0.188 0.219,0.418 0.281,0.688 0.071,0.273 0.11,0.641 0.11,1.109 0,0.543 -0.059,0.985 -0.172,1.328 -0.117,0.336 -0.289,0.594 -0.516,0.782 -0.219,0.179 -0.496,0.265 -0.828,0.265 -0.461,0 -0.812,-0.16 -1.062,-0.484 -0.313,-0.383 -0.469,-1.016 -0.469,-1.891 z m 0.593,0 c 0,0.762 0.086,1.274 0.266,1.532 0.176,0.25 0.399,0.375 0.672,0.375 0.258,0 0.477,-0.125 0.656,-0.375 0.176,-0.258 0.266,-0.77 0.266,-1.532 0,-0.769 -0.09,-1.281 -0.266,-1.531 -0.179,-0.25 -0.402,-0.375 -0.672,-0.375 -0.261,0 -0.468,0.109 -0.625,0.328 -0.199,0.281 -0.297,0.809 -0.297,1.578 z"
         style="fill:#000000;fill-opacity:1;fill-rule:nonzero;stroke:none"
         id="path262" />
      <path
         d="M 31.758,138.102 V 5.508"
         style="fill:none;stroke:#000000;stroke-width:0.407562;stroke-linecap:round;stroke-linejoin:round;stroke-miterlimit:10;stroke-dasharray:none;stroke-opacity:1"
         id="path264" />
      <path
         d="m 31.758,138.102 h -3.91"
         style="fill:none;stroke:#000000;stroke-width:0.407562;stroke-linecap:round;stroke-linejoin:round;stroke-miterlimit:10;stroke-dasharray:none;stroke-opacity:1"
         id="path266" />
      <path
         d="m 31.758,119.156 h -3.91"
         style="fill:none;stroke:#000000;stroke-width:0.407562;stroke-linecap:round;stroke-linejoin:round;stroke-miterlimit:10;stroke-dasharray:none;stroke-opacity:1"
         id="path268" />
      <path
         d="m 31.758,100.219 h -3.91"
         style="fill:none;stroke:#000000;stroke-width:0.407562;stroke-linecap:round;stroke-linejoin:round;stroke-miterlimit:10;stroke-dasharray:none;stroke-opacity:1"
         id="path270" />
      <path
         d="m 31.758,81.277 h -3.91"
         style="fill:none;stroke:#000000;stroke-width:0.407562;stroke-linecap:round;stroke-linejoin:round;stroke-miterlimit:10;stroke-dasharray:none;stroke-opacity:1"
         id="path272" />
      <path
         d="m 31.758,62.332 h -3.91"
         style="fill:none;stroke:#000000;stroke-width:0.407562;stroke-linecap:round;stroke-linejoin:round;stroke-miterlimit:10;stroke-dasharray:none;stroke-opacity:1"
         id="path274" />
      <path
         d="m 31.758,43.391 h -3.91"
         style="fill:none;stroke:#000000;stroke-width:0.407562;stroke-linecap:round;stroke-linejoin:round;stroke-miterlimit:10;stroke-dasharray:none;stroke-opacity:1"
         id="path276" />
      <path
         d="m 31.758,24.449 h -3.91"
         style="fill:none;stroke:#000000;stroke-width:0.407562;stroke-linecap:round;stroke-linejoin:round;stroke-miterlimit:10;stroke-dasharray:none;stroke-opacity:1"
         id="path278" />
      <path
         d="m 31.758,5.508 h -3.91"
         style="fill:none;stroke:#000000;stroke-width:0.407562;stroke-linecap:round;stroke-linejoin:round;stroke-miterlimit:10;stroke-dasharray:none;stroke-opacity:1"
         id="path280" />
      <path
         d="m 20.07,139.648 c -0.55,0 -0.992,-0.054 -1.328,-0.171 -0.344,-0.114 -0.601,-0.282 -0.781,-0.5 -0.188,-0.227 -0.281,-0.516 -0.281,-0.86 0,-0.25 0.054,-0.469 0.156,-0.656 0.105,-0.188 0.25,-0.344 0.437,-0.469 0.188,-0.125 0.418,-0.219 0.688,-0.281 0.273,-0.07 0.641,-0.109 1.109,-0.109 0.543,0 0.985,0.058 1.328,0.171 0.336,0.118 0.594,0.289 0.782,0.516 0.179,0.219 0.265,0.496 0.265,0.828 0,0.461 -0.16,0.813 -0.484,1.063 -0.383,0.312 -1.016,0.468 -1.891,0.468 z m 0,-0.593 c 0.762,0 1.274,-0.086 1.532,-0.266 0.25,-0.176 0.375,-0.398 0.375,-0.672 0,-0.258 -0.125,-0.476 -0.375,-0.656 -0.258,-0.176 -0.77,-0.266 -1.532,-0.266 -0.769,0 -1.281,0.09 -1.531,0.266 -0.25,0.18 -0.375,0.402 -0.375,0.672 0,0.262 0.109,0.469 0.328,0.625 0.281,0.199 0.809,0.297 1.578,0.297 z"
         style="fill:#000000;fill-opacity:1;fill-rule:nonzero;stroke:none"
         id="path282" />
      <path
         d="m 21.148,120.707 -0.046,-0.609 c 0.293,-0.039 0.511,-0.141 0.656,-0.297 0.148,-0.164 0.219,-0.363 0.219,-0.594 0,-0.281 -0.102,-0.516 -0.313,-0.703 -0.207,-0.188 -0.484,-0.281 -0.828,-0.281 -0.32,0 -0.578,0.093 -0.766,0.281 -0.195,0.18 -0.297,0.414 -0.297,0.703 0,0.188 0.047,0.359 0.141,0.516 0.086,0.148 0.188,0.261 0.313,0.343 l -0.063,0.532 -2.391,-0.453 v -2.313 h 0.547 v 1.859 l 1.25,0.25 c -0.195,-0.281 -0.297,-0.57 -0.297,-0.875 0,-0.406 0.141,-0.75 0.422,-1.031 0.282,-0.281 0.649,-0.422 1.094,-0.422 0.418,0 0.781,0.121 1.094,0.36 0.375,0.304 0.562,0.715 0.562,1.234 0,0.43 -0.117,0.777 -0.359,1.047 -0.238,0.262 -0.551,0.414 -0.938,0.453 z"
         style="fill:#000000;fill-opacity:1;fill-rule:nonzero;stroke:none"
         id="path284" />
      <path
         d="m 22.367,101.426 v 0.562 h -3.656 c 0.137,0.149 0.273,0.328 0.406,0.547 0.125,0.219 0.227,0.422 0.297,0.61 h -0.562 c -0.145,-0.321 -0.321,-0.602 -0.532,-0.844 -0.218,-0.239 -0.429,-0.41 -0.64,-0.516 v -0.359 z"
         style="fill:#000000;fill-opacity:1;fill-rule:nonzero;stroke:none"
         id="path286" />
      <path
         d="m 20.07,99.957 c -0.55,0 -0.992,-0.055 -1.328,-0.172 -0.344,-0.113 -0.601,-0.281 -0.781,-0.5 -0.188,-0.226 -0.281,-0.515 -0.281,-0.859 0,-0.25 0.054,-0.469 0.156,-0.656 0.105,-0.188 0.25,-0.344 0.437,-0.469 0.188,-0.125 0.418,-0.219 0.688,-0.281 0.273,-0.071 0.641,-0.11 1.109,-0.11 0.543,0 0.985,0.059 1.328,0.172 0.336,0.117 0.594,0.289 0.782,0.516 0.179,0.218 0.265,0.496 0.265,0.828 0,0.461 -0.16,0.812 -0.484,1.062 -0.383,0.313 -1.016,0.469 -1.891,0.469 z m 0,-0.594 c 0.762,0 1.274,-0.086 1.532,-0.265 0.25,-0.176 0.375,-0.399 0.375,-0.672 0,-0.258 -0.125,-0.477 -0.375,-0.656 -0.258,-0.176 -0.77,-0.266 -1.532,-0.266 -0.769,0 -1.281,0.09 -1.531,0.266 -0.25,0.179 -0.375,0.402 -0.375,0.671 0,0.262 0.109,0.469 0.328,0.625 0.281,0.2 0.809,0.297 1.578,0.297 z"
         style="fill:#000000;fill-opacity:1;fill-rule:nonzero;stroke:none"
         id="path288" />
      <path
         d="m 22.367,82.48 v 0.563 h -3.656 c 0.137,0.148 0.273,0.328 0.406,0.547 0.125,0.219 0.227,0.422 0.297,0.609 h -0.562 c -0.145,-0.32 -0.321,-0.601 -0.532,-0.844 -0.218,-0.238 -0.429,-0.41 -0.64,-0.515 v -0.36 z"
         style="fill:#000000;fill-opacity:1;fill-rule:nonzero;stroke:none"
         id="path290" />
      <path
         d="m 21.148,81.012 -0.046,-0.61 c 0.293,-0.039 0.511,-0.14 0.656,-0.297 0.148,-0.164 0.219,-0.363 0.219,-0.593 0,-0.282 -0.102,-0.516 -0.313,-0.703 -0.207,-0.188 -0.484,-0.282 -0.828,-0.282 -0.32,0 -0.578,0.094 -0.766,0.282 -0.195,0.179 -0.297,0.414 -0.297,0.703 0,0.187 0.047,0.359 0.141,0.515 0.086,0.149 0.188,0.262 0.313,0.344 l -0.063,0.531 -2.391,-0.453 v -2.312 h 0.547 v 1.859 l 1.25,0.25 c -0.195,-0.281 -0.297,-0.57 -0.297,-0.875 0,-0.406 0.141,-0.75 0.422,-1.031 0.282,-0.281 0.649,-0.422 1.094,-0.422 0.418,0 0.781,0.121 1.094,0.359 0.375,0.305 0.562,0.715 0.562,1.235 0,0.429 -0.117,0.777 -0.359,1.047 -0.238,0.261 -0.551,0.414 -0.938,0.453 z"
         style="fill:#000000;fill-opacity:1;fill-rule:nonzero;stroke:none"
         id="path292" />
      <path
         d="m 21.82,62.684 h 0.547 v 3.078 c -0.133,0.011 -0.265,-0.008 -0.39,-0.063 -0.219,-0.07 -0.426,-0.195 -0.625,-0.375 -0.207,-0.176 -0.442,-0.426 -0.704,-0.75 -0.414,-0.508 -0.742,-0.851 -0.984,-1.031 -0.25,-0.176 -0.484,-0.266 -0.703,-0.266 -0.219,0 -0.406,0.086 -0.563,0.25 -0.156,0.157 -0.234,0.368 -0.234,0.625 0,0.282 0.086,0.508 0.25,0.672 0.156,0.168 0.383,0.25 0.672,0.25 l -0.047,0.578 c -0.445,-0.031 -0.785,-0.175 -1.016,-0.437 -0.226,-0.27 -0.343,-0.625 -0.343,-1.063 0,-0.445 0.125,-0.8 0.375,-1.062 0.25,-0.27 0.558,-0.406 0.922,-0.406 0.187,0 0.375,0.043 0.562,0.125 0.18,0.074 0.367,0.199 0.563,0.375 0.199,0.179 0.468,0.476 0.812,0.89 0.293,0.344 0.492,0.563 0.594,0.656 0.105,0.094 0.211,0.172 0.312,0.235 z"
         style="fill:#000000;fill-opacity:1;fill-rule:nonzero;stroke:none"
         id="path294" />
      <path
         d="m 20.07,62.074 c -0.55,0 -0.992,-0.054 -1.328,-0.172 -0.344,-0.113 -0.601,-0.281 -0.781,-0.5 -0.188,-0.226 -0.281,-0.515 -0.281,-0.859 0,-0.25 0.054,-0.469 0.156,-0.656 0.105,-0.188 0.25,-0.344 0.437,-0.469 0.188,-0.125 0.418,-0.219 0.688,-0.281 0.273,-0.071 0.641,-0.11 1.109,-0.11 0.543,0 0.985,0.059 1.328,0.172 0.336,0.117 0.594,0.289 0.782,0.516 0.179,0.219 0.265,0.496 0.265,0.828 0,0.461 -0.16,0.812 -0.484,1.062 -0.383,0.313 -1.016,0.469 -1.891,0.469 z m 0,-0.594 c 0.762,0 1.274,-0.085 1.532,-0.265 0.25,-0.176 0.375,-0.399 0.375,-0.672 0,-0.258 -0.125,-0.477 -0.375,-0.656 -0.258,-0.176 -0.77,-0.266 -1.532,-0.266 -0.769,0 -1.281,0.09 -1.531,0.266 -0.25,0.179 -0.375,0.402 -0.375,0.672 0,0.261 0.109,0.468 0.328,0.625 0.281,0.199 0.809,0.296 1.578,0.296 z"
         style="fill:#000000;fill-opacity:1;fill-rule:nonzero;stroke:none"
         id="path296" />
      <path
         d="m 21.82,43.742 h 0.547 v 3.078 c -0.133,0.012 -0.265,-0.008 -0.39,-0.062 -0.219,-0.07 -0.426,-0.196 -0.625,-0.375 -0.207,-0.176 -0.442,-0.426 -0.704,-0.75 -0.414,-0.508 -0.742,-0.852 -0.984,-1.031 -0.25,-0.176 -0.484,-0.266 -0.703,-0.266 -0.219,0 -0.406,0.086 -0.563,0.25 -0.156,0.156 -0.234,0.367 -0.234,0.625 0,0.281 0.086,0.508 0.25,0.672 0.156,0.168 0.383,0.25 0.672,0.25 l -0.047,0.578 C 18.594,46.68 18.254,46.535 18.023,46.273 17.797,46.004 17.68,45.648 17.68,45.211 c 0,-0.445 0.125,-0.801 0.375,-1.063 0.25,-0.269 0.558,-0.406 0.922,-0.406 0.187,0 0.375,0.043 0.562,0.125 0.18,0.074 0.367,0.199 0.563,0.375 0.199,0.18 0.468,0.477 0.812,0.891 0.293,0.344 0.492,0.562 0.594,0.656 0.105,0.094 0.211,0.172 0.312,0.234 z"
         style="fill:#000000;fill-opacity:1;fill-rule:nonzero;stroke:none"
         id="path298" />
      <path
         d="m 21.148,43.133 -0.046,-0.61 c 0.293,-0.039 0.511,-0.14 0.656,-0.296 0.148,-0.165 0.219,-0.364 0.219,-0.594 0,-0.281 -0.102,-0.516 -0.313,-0.703 -0.207,-0.188 -0.484,-0.282 -0.828,-0.282 -0.32,0 -0.578,0.094 -0.766,0.282 -0.195,0.179 -0.297,0.414 -0.297,0.703 0,0.187 0.047,0.359 0.141,0.515 0.086,0.149 0.188,0.262 0.313,0.344 l -0.063,0.531 -2.391,-0.453 v -2.312 h 0.547 v 1.859 l 1.25,0.25 c -0.195,-0.281 -0.297,-0.57 -0.297,-0.875 0,-0.406 0.141,-0.75 0.422,-1.031 0.282,-0.281 0.649,-0.422 1.094,-0.422 0.418,0 0.781,0.121 1.094,0.359 0.375,0.305 0.562,0.715 0.562,1.235 0,0.429 -0.117,0.777 -0.359,1.047 -0.238,0.261 -0.551,0.414 -0.938,0.453 z"
         style="fill:#000000;fill-opacity:1;fill-rule:nonzero;stroke:none"
         id="path300" />
      <path
         d="m 21.133,27.797 -0.078,-0.563 c 0.324,-0.062 0.558,-0.172 0.703,-0.328 0.148,-0.164 0.219,-0.363 0.219,-0.594 0,-0.257 -0.094,-0.484 -0.282,-0.671 -0.187,-0.188 -0.414,-0.282 -0.687,-0.282 -0.27,0 -0.488,0.09 -0.656,0.266 -0.164,0.168 -0.25,0.383 -0.25,0.641 0,0.117 0.023,0.25 0.062,0.406 l -0.5,-0.063 c 0,-0.039 0,-0.07 0,-0.093 0,-0.239 -0.062,-0.457 -0.187,-0.657 -0.133,-0.195 -0.332,-0.297 -0.594,-0.297 -0.207,0 -0.379,0.075 -0.516,0.219 -0.144,0.149 -0.219,0.328 -0.219,0.547 0,0.231 0.075,0.418 0.219,0.563 0.137,0.148 0.344,0.242 0.625,0.281 l -0.094,0.578 c -0.382,-0.07 -0.679,-0.234 -0.89,-0.484 -0.219,-0.25 -0.328,-0.555 -0.328,-0.922 0,-0.25 0.058,-0.485 0.172,-0.703 0.105,-0.219 0.25,-0.379 0.437,-0.485 0.188,-0.113 0.391,-0.172 0.609,-0.172 0.2,0 0.383,0.055 0.547,0.157 0.168,0.105 0.297,0.265 0.391,0.484 0.062,-0.281 0.199,-0.492 0.406,-0.641 0.199,-0.156 0.449,-0.234 0.75,-0.234 0.406,0 0.75,0.152 1.031,0.453 0.282,0.293 0.422,0.668 0.422,1.125 0,0.406 -0.117,0.746 -0.359,1.016 -0.25,0.273 -0.566,0.422 -0.953,0.453 z"
         style="fill:#000000;fill-opacity:1;fill-rule:nonzero;stroke:none"
         id="path302" />
      <path
         d="m 20.07,24.188 c -0.55,0 -0.992,-0.055 -1.328,-0.172 -0.344,-0.114 -0.601,-0.282 -0.781,-0.5 C 17.773,23.289 17.68,23 17.68,22.656 c 0,-0.25 0.054,-0.468 0.156,-0.656 0.105,-0.188 0.25,-0.344 0.437,-0.469 0.188,-0.125 0.418,-0.219 0.688,-0.281 0.273,-0.07 0.641,-0.109 1.109,-0.109 0.543,0 0.985,0.058 1.328,0.171 0.336,0.118 0.594,0.29 0.782,0.516 0.179,0.219 0.265,0.496 0.265,0.828 0,0.461 -0.16,0.813 -0.484,1.063 -0.383,0.312 -1.016,0.469 -1.891,0.469 z m 0,-0.594 c 0.762,0 1.274,-0.086 1.532,-0.266 0.25,-0.176 0.375,-0.398 0.375,-0.672 0,-0.258 -0.125,-0.476 -0.375,-0.656 -0.258,-0.176 -0.77,-0.266 -1.532,-0.266 -0.769,0 -1.281,0.09 -1.531,0.266 -0.25,0.18 -0.375,0.402 -0.375,0.672 0,0.262 0.109,0.469 0.328,0.625 0.281,0.199 0.809,0.297 1.578,0.297 z"
         style="fill:#000000;fill-opacity:1;fill-rule:nonzero;stroke:none"
         id="path304" />
      <path
         d="M 21.133,8.852 21.055,8.289 c 0.324,-0.062 0.558,-0.172 0.703,-0.328 0.148,-0.164 0.219,-0.363 0.219,-0.594 0,-0.258 -0.094,-0.484 -0.282,-0.672 -0.187,-0.187 -0.414,-0.281 -0.687,-0.281 -0.27,0 -0.488,0.09 -0.656,0.266 -0.164,0.168 -0.25,0.382 -0.25,0.64 0,0.118 0.023,0.25 0.062,0.407 l -0.5,-0.063 c 0,-0.039 0,-0.07 0,-0.094 0,-0.238 -0.062,-0.457 -0.187,-0.656 -0.133,-0.195 -0.332,-0.297 -0.594,-0.297 -0.207,0 -0.379,0.074 -0.516,0.219 -0.144,0.148 -0.219,0.328 -0.219,0.547 0,0.23 0.075,0.418 0.219,0.562 0.137,0.149 0.344,0.243 0.625,0.282 L 18.898,8.805 C 18.516,8.734 18.219,8.57 18.008,8.32 17.789,8.07 17.68,7.766 17.68,7.398 c 0,-0.25 0.058,-0.484 0.172,-0.703 0.105,-0.218 0.25,-0.379 0.437,-0.484 0.188,-0.113 0.391,-0.172 0.609,-0.172 0.2,0 0.383,0.055 0.547,0.156 0.168,0.106 0.297,0.266 0.391,0.485 0.062,-0.282 0.199,-0.492 0.406,-0.641 0.199,-0.156 0.449,-0.234 0.75,-0.234 0.406,0 0.75,0.152 1.031,0.453 0.282,0.293 0.422,0.668 0.422,1.125 0,0.406 -0.117,0.746 -0.359,1.015 -0.25,0.274 -0.566,0.422 -0.953,0.454 z"
         style="fill:#000000;fill-opacity:1;fill-rule:nonzero;stroke:none"
         id="path306" />
      <path
         d="M 21.148,5.242 21.102,4.633 c 0.293,-0.039 0.511,-0.141 0.656,-0.297 0.148,-0.164 0.219,-0.363 0.219,-0.594 0,-0.281 -0.102,-0.515 -0.313,-0.703 -0.207,-0.187 -0.484,-0.281 -0.828,-0.281 -0.32,0 -0.578,0.094 -0.766,0.281 -0.195,0.18 -0.297,0.414 -0.297,0.703 0,0.188 0.047,0.36 0.141,0.516 C 20,4.406 20.102,4.52 20.227,4.602 L 20.164,5.133 17.773,4.68 V 2.367 h 0.547 v 1.86 l 1.25,0.25 C 19.375,4.195 19.273,3.906 19.273,3.602 c 0,-0.407 0.141,-0.75 0.422,-1.032 0.282,-0.281 0.649,-0.422 1.094,-0.422 0.418,0 0.781,0.122 1.094,0.36 0.375,0.304 0.562,0.715 0.562,1.234 0,0.43 -0.117,0.778 -0.359,1.047 -0.238,0.262 -0.551,0.414 -0.938,0.453 z"
         style="fill:#000000;fill-opacity:1;fill-rule:nonzero;stroke:none"
         id="path308" />
      <path
         d="M 31.758,0.203 H 296.25 V 143.406 H 31.758 Z"
         style="fill:none;stroke:#000000;stroke-width:0.407562;stroke-linecap:round;stroke-linejoin:round;stroke-miterlimit:10;stroke-dasharray:none;stroke-opacity:1"
         id="path310" />
      <path
         d="m 142.898,173.141 v -6.61 h 2.485 c 0.437,0 0.773,0.024 1.015,0.063 0.321,0.054 0.594,0.156 0.813,0.312 0.219,0.149 0.394,0.36 0.531,0.641 0.133,0.273 0.203,0.57 0.203,0.891 0,0.562 -0.183,1.042 -0.547,1.437 -0.355,0.387 -1,0.578 -1.937,0.578 h -1.688 v 2.688 z m 0.875,-3.469 h 1.704 c 0.562,0 0.961,-0.102 1.203,-0.313 0.238,-0.207 0.359,-0.504 0.359,-0.89 0,-0.281 -0.074,-0.516 -0.219,-0.703 -0.136,-0.196 -0.32,-0.328 -0.547,-0.391 -0.148,-0.039 -0.418,-0.063 -0.812,-0.063 h -1.688 z"
         style="fill:#000000;fill-opacity:1;fill-rule:nonzero;stroke:none"
         id="path312" />
      <path
         d="m 148.184,170.75 c 0,-0.883 0.242,-1.539 0.734,-1.969 0.406,-0.351 0.906,-0.531 1.5,-0.531 0.664,0 1.207,0.215 1.625,0.641 0.414,0.429 0.625,1.023 0.625,1.781 0,0.625 -0.094,1.117 -0.281,1.469 -0.188,0.343 -0.461,0.617 -0.813,0.812 -0.355,0.195 -0.742,0.297 -1.156,0.297 -0.668,0 -1.211,-0.211 -1.625,-0.641 -0.406,-0.437 -0.609,-1.054 -0.609,-1.859 z m 0.828,0 c 0,0.617 0.129,1.074 0.39,1.375 0.27,0.305 0.61,0.453 1.016,0.453 0.406,0 0.738,-0.148 1,-0.453 0.27,-0.313 0.406,-0.781 0.406,-1.406 0,-0.594 -0.136,-1.039 -0.406,-1.344 -0.262,-0.301 -0.594,-0.453 -1,-0.453 -0.406,0 -0.746,0.152 -1.016,0.453 -0.261,0.305 -0.39,0.762 -0.39,1.375 z"
         style="fill:#000000;fill-opacity:1;fill-rule:nonzero;stroke:none"
         id="path314" />
      <path
         d="m 153.617,174.969 v -6.61 h 0.735 v 0.61 c 0.175,-0.239 0.375,-0.414 0.593,-0.531 0.219,-0.126 0.485,-0.188 0.797,-0.188 0.406,0 0.766,0.105 1.078,0.312 0.313,0.211 0.547,0.508 0.703,0.891 0.165,0.387 0.25,0.805 0.25,1.25 0,0.492 -0.089,0.934 -0.265,1.328 -0.18,0.399 -0.434,0.699 -0.766,0.907 -0.336,0.207 -0.687,0.312 -1.062,0.312 -0.274,0 -0.516,-0.059 -0.735,-0.172 -0.211,-0.113 -0.383,-0.258 -0.515,-0.437 v 2.328 z m 0.735,-4.203 c 0,0.625 0.125,1.086 0.375,1.375 0.25,0.293 0.55,0.437 0.906,0.437 0.363,0 0.672,-0.148 0.922,-0.453 0.257,-0.301 0.39,-0.773 0.39,-1.422 0,-0.601 -0.125,-1.055 -0.375,-1.359 -0.25,-0.313 -0.554,-0.469 -0.906,-0.469 -0.344,0 -0.652,0.164 -0.922,0.484 -0.262,0.325 -0.39,0.793 -0.39,1.407 z"
         style="fill:#000000;fill-opacity:1;fill-rule:nonzero;stroke:none"
         id="path316" />
      <path
         d="m 161.895,173.141 v -0.703 c -0.375,0.542 -0.883,0.812 -1.516,0.812 -0.293,0 -0.563,-0.055 -0.813,-0.156 -0.242,-0.114 -0.418,-0.25 -0.531,-0.406 -0.117,-0.165 -0.199,-0.368 -0.25,-0.61 -0.031,-0.156 -0.047,-0.41 -0.047,-0.766 v -2.953 h 0.813 v 2.657 c 0,0.418 0.015,0.699 0.047,0.843 0.05,0.219 0.16,0.391 0.328,0.516 0.164,0.117 0.367,0.172 0.609,0.172 0.238,0 0.461,-0.063 0.672,-0.188 0.219,-0.125 0.367,-0.289 0.453,-0.5 0.094,-0.218 0.141,-0.531 0.141,-0.937 v -2.563 h 0.812 v 4.782 z"
         style="fill:#000000;fill-opacity:1;fill-rule:nonzero;stroke:none"
         id="path318" />
      <path
         d="m 163.875,166.531 h 0.812 v 6.609 h -0.812 z"
         style="fill:#000000;fill-opacity:1;fill-rule:nonzero;stroke:none"
         id="path320" />
      <path
         d="m 169.066,172.547 c -0.304,0.262 -0.593,0.445 -0.875,0.547 -0.273,0.101 -0.57,0.156 -0.89,0.156 -0.524,0 -0.93,-0.125 -1.219,-0.375 -0.281,-0.258 -0.422,-0.594 -0.422,-1 0,-0.227 0.051,-0.441 0.156,-0.641 0.114,-0.195 0.254,-0.351 0.422,-0.468 0.176,-0.114 0.375,-0.204 0.594,-0.266 0.156,-0.039 0.395,-0.082 0.719,-0.125 0.656,-0.07 1.14,-0.16 1.453,-0.266 0,-0.113 0,-0.187 0,-0.218 0,-0.332 -0.078,-0.567 -0.234,-0.703 -0.211,-0.176 -0.516,-0.266 -0.922,-0.266 -0.387,0 -0.672,0.07 -0.86,0.203 -0.179,0.125 -0.308,0.359 -0.39,0.703 l -0.797,-0.109 c 0.07,-0.344 0.191,-0.617 0.359,-0.828 0.164,-0.207 0.406,-0.364 0.719,-0.469 0.312,-0.113 0.676,-0.172 1.094,-0.172 0.406,0 0.734,0.047 0.984,0.141 0.258,0.093 0.445,0.214 0.563,0.359 0.125,0.148 0.21,0.328 0.265,0.547 0.02,0.148 0.031,0.398 0.031,0.75 v 1.094 c 0,0.75 0.016,1.226 0.047,1.421 0.039,0.2 0.114,0.391 0.219,0.579 h -0.859 c -0.086,-0.164 -0.137,-0.364 -0.157,-0.594 z m -0.062,-1.813 c -0.305,0.125 -0.746,0.231 -1.328,0.313 -0.336,0.043 -0.574,0.094 -0.719,0.156 -0.137,0.063 -0.242,0.152 -0.312,0.266 -0.075,0.117 -0.11,0.246 -0.11,0.39 0,0.219 0.078,0.403 0.235,0.547 0.164,0.137 0.41,0.203 0.734,0.203 0.312,0 0.586,-0.066 0.828,-0.203 0.238,-0.133 0.414,-0.32 0.531,-0.562 0.094,-0.176 0.141,-0.446 0.141,-0.813 z"
         style="fill:#000000;fill-opacity:1;fill-rule:nonzero;stroke:none"
         id="path322" />
      <path
         d="m 172.844,172.422 0.125,0.703 c -0.231,0.051 -0.434,0.078 -0.61,0.078 -0.304,0 -0.539,-0.047 -0.703,-0.141 -0.156,-0.093 -0.273,-0.21 -0.344,-0.359 -0.062,-0.156 -0.093,-0.476 -0.093,-0.969 v -2.75 h -0.594 v -0.625 h 0.594 v -1.187 l 0.812,-0.5 v 1.687 h 0.813 v 0.625 h -0.813 v 2.797 c 0,0.231 0.016,0.383 0.047,0.453 0.031,0.063 0.078,0.118 0.141,0.157 0.062,0.043 0.156,0.062 0.281,0.062 0.082,0 0.195,-0.008 0.344,-0.031 z"
         style="fill:#000000;fill-opacity:1;fill-rule:nonzero;stroke:none"
         id="path324" />
      <path
         d="m 173.637,167.469 v -0.938 h 0.812 v 0.938 z m 0,5.672 v -4.782 h 0.812 v 4.782 z"
         style="fill:#000000;fill-opacity:1;fill-rule:nonzero;stroke:none"
         id="path326" />
      <path
         d="m 175.391,170.75 c 0,-0.883 0.242,-1.539 0.734,-1.969 0.406,-0.351 0.906,-0.531 1.5,-0.531 0.664,0 1.207,0.215 1.625,0.641 0.414,0.429 0.625,1.023 0.625,1.781 0,0.625 -0.094,1.117 -0.281,1.469 -0.188,0.343 -0.461,0.617 -0.813,0.812 -0.355,0.195 -0.742,0.297 -1.156,0.297 -0.668,0 -1.211,-0.211 -1.625,-0.641 -0.406,-0.437 -0.609,-1.054 -0.609,-1.859 z m 0.828,0 c 0,0.617 0.129,1.074 0.39,1.375 0.27,0.305 0.61,0.453 1.016,0.453 0.406,0 0.738,-0.148 1,-0.453 0.27,-0.313 0.406,-0.781 0.406,-1.406 0,-0.594 -0.136,-1.039 -0.406,-1.344 -0.262,-0.301 -0.594,-0.453 -1,-0.453 -0.406,0 -0.746,0.152 -1.016,0.453 -0.261,0.305 -0.39,0.762 -0.39,1.375 z"
         style="fill:#000000;fill-opacity:1;fill-rule:nonzero;stroke:none"
         id="path328" />
      <path
         d="m 180.824,173.141 v -4.782 h 0.735 v 0.672 c 0.343,-0.519 0.847,-0.781 1.515,-0.781 0.289,0 0.555,0.055 0.797,0.156 0.238,0.106 0.414,0.242 0.531,0.406 0.125,0.168 0.211,0.368 0.266,0.594 0.031,0.149 0.047,0.414 0.047,0.797 v 2.938 h -0.813 v -2.907 c 0,-0.332 -0.031,-0.582 -0.093,-0.75 -0.063,-0.164 -0.18,-0.296 -0.344,-0.39 -0.156,-0.094 -0.344,-0.141 -0.563,-0.141 -0.343,0 -0.64,0.109 -0.89,0.328 -0.25,0.219 -0.375,0.637 -0.375,1.25 v 2.61 z"
         style="fill:#000000;fill-opacity:1;fill-rule:nonzero;stroke:none"
         id="path330" />
      <path
         d="m 6.719,98.27 -6.61,-2.547 v -0.938 l 6.61,-2.703 v 1 l -2,0.766 v 2.765 l 2,0.719 z M 4,96.363 v -2.25 l -1.828,0.703 c -0.551,0.211 -1.008,0.368 -1.375,0.469 0.43,0.086 0.851,0.199 1.265,0.344 z"
         style="fill:#000000;fill-opacity:1;fill-rule:nonzero;stroke:none"
         id="path332" />
      <path
         d="m 6.719,88.383 h -0.61 c 0.481,0.305 0.719,0.75 0.719,1.344 0,0.386 -0.105,0.742 -0.312,1.062 -0.207,0.313 -0.5,0.559 -0.875,0.734 -0.383,0.18 -0.821,0.266 -1.313,0.266 -0.476,0 -0.91,-0.078 -1.297,-0.234 -0.394,-0.164 -0.691,-0.407 -0.89,-0.719 -0.207,-0.32 -0.313,-0.68 -0.313,-1.078 0,-0.281 0.063,-0.535 0.188,-0.766 0.117,-0.226 0.273,-0.41 0.468,-0.547 H 0.109 v -0.812 h 6.61 z m -2.391,2.562 c 0.617,0 1.074,-0.125 1.375,-0.375 0.305,-0.258 0.453,-0.566 0.453,-0.922 0,-0.351 -0.14,-0.656 -0.422,-0.906 -0.289,-0.25 -0.738,-0.375 -1.343,-0.375 -0.657,0 -1.133,0.133 -1.438,0.391 -0.301,0.25 -0.453,0.558 -0.453,0.922 0,0.367 0.148,0.668 0.438,0.906 0.292,0.242 0.757,0.359 1.39,0.359 z"
         style="fill:#000000;fill-opacity:1;fill-rule:nonzero;stroke:none"
         id="path334" />
      <path
         d="M 4.594,83.984 4.516,83.172 c 0.336,-0.039 0.609,-0.133 0.828,-0.281 0.211,-0.145 0.383,-0.364 0.515,-0.657 0.125,-0.3 0.188,-0.64 0.188,-1.015 C 6.047,80.887 6,80.594 5.906,80.344 5.805,80.086 5.668,79.891 5.5,79.766 5.324,79.641 5.133,79.578 4.922,79.578 c -0.207,0 -0.383,0.063 -0.531,0.188 -0.157,0.117 -0.289,0.308 -0.407,0.578 -0.062,0.179 -0.164,0.574 -0.312,1.187 -0.145,0.606 -0.285,1.028 -0.422,1.266 -0.156,0.324 -0.359,0.562 -0.609,0.719 -0.25,0.148 -0.524,0.218 -0.829,0.218 -0.332,0 -0.64,-0.093 -0.921,-0.281 C 0.602,83.266 0.383,82.992 0.234,82.625 0.078,82.262 0,81.855 0,81.406 0,80.918 0.078,80.484 0.234,80.109 0.391,79.734 0.625,79.449 0.938,79.25 1.242,79.055 1.586,78.945 1.969,78.922 l 0.062,0.844 c -0.414,0.043 -0.726,0.195 -0.937,0.453 -0.219,0.261 -0.328,0.648 -0.328,1.156 0,0.531 0.101,0.918 0.296,1.156 0.188,0.242 0.422,0.36 0.704,0.36 0.23,0 0.422,-0.082 0.578,-0.25 0.156,-0.164 0.32,-0.602 0.484,-1.313 0.156,-0.719 0.293,-1.207 0.406,-1.469 0.18,-0.382 0.403,-0.664 0.672,-0.843 0.274,-0.188 0.59,-0.282 0.953,-0.282 0.344,0 0.672,0.102 0.985,0.297 0.312,0.199 0.558,0.492 0.734,0.875 0.164,0.375 0.25,0.797 0.25,1.266 0,0.605 -0.086,1.109 -0.25,1.516 -0.176,0.398 -0.437,0.71 -0.781,0.937 -0.352,0.23 -0.754,0.352 -1.203,0.359 z"
         style="fill:#000000;fill-opacity:1;fill-rule:nonzero;stroke:none"
         id="path336" />
      <path
         d="M 8.547,77.645 H 1.938 V 76.91 H 2.547 C 2.309,76.734 2.133,76.535 2.016,76.316 1.891,76.098 1.828,75.832 1.828,75.52 c 0,-0.407 0.106,-0.766 0.313,-1.079 0.211,-0.312 0.507,-0.546 0.89,-0.703 0.387,-0.164 0.805,-0.25 1.25,-0.25 0.492,0 0.934,0.09 1.328,0.266 0.399,0.18 0.7,0.434 0.907,0.766 0.207,0.335 0.312,0.687 0.312,1.062 0,0.273 -0.058,0.516 -0.172,0.734 -0.113,0.211 -0.258,0.383 -0.437,0.516 H 8.547 Z M 4.344,76.91 c 0.625,0 1.086,-0.125 1.375,-0.375 0.293,-0.25 0.437,-0.551 0.437,-0.906 0,-0.363 -0.148,-0.672 -0.453,-0.922 -0.301,-0.258 -0.773,-0.391 -1.422,-0.391 -0.601,0 -1.054,0.125 -1.359,0.375 -0.313,0.25 -0.469,0.555 -0.469,0.907 0,0.343 0.164,0.652 0.485,0.922 0.324,0.261 0.792,0.39 1.406,0.39 z"
         style="fill:#000000;fill-opacity:1;fill-rule:nonzero;stroke:none"
         id="path338" />
      <path
         d="m 5.172,69.227 0.109,-0.829 c 0.492,0.125 0.871,0.372 1.141,0.735 0.273,0.355 0.406,0.808 0.406,1.359 0,0.711 -0.211,1.266 -0.64,1.672 C 5.75,72.57 5.141,72.773 4.359,72.773 3.559,72.773 2.938,72.57 2.5,72.164 2.055,71.75 1.828,71.207 1.828,70.539 c 0,-0.633 0.219,-1.156 0.656,-1.562 0.43,-0.407 1.039,-0.61 1.828,-0.61 0.055,0 0.126,0 0.219,0 v 3.578 c 0.531,-0.031 0.938,-0.179 1.219,-0.453 0.273,-0.269 0.406,-0.601 0.406,-1 0,-0.301 -0.078,-0.554 -0.234,-0.765 -0.156,-0.207 -0.406,-0.375 -0.75,-0.5 z m -1.313,2.671 v -2.671 c -0.394,0.031 -0.695,0.132 -0.906,0.296 -0.312,0.262 -0.469,0.602 -0.469,1.016 0,0.367 0.125,0.68 0.375,0.938 0.25,0.25 0.586,0.39 1,0.421 z"
         style="fill:#000000;fill-opacity:1;fill-rule:nonzero;stroke:none"
         id="path340" />
      <path
         d="M 6.719,67.371 H 1.938 V 66.637 H 2.609 C 2.09,66.293 1.828,65.789 1.828,65.121 1.828,64.832 1.883,64.566 1.984,64.324 2.09,64.086 2.227,63.91 2.391,63.793 2.559,63.668 2.758,63.582 2.984,63.527 3.133,63.496 3.398,63.48 3.781,63.48 h 2.938 v 0.813 H 3.812 c -0.332,0 -0.582,0.031 -0.75,0.094 -0.164,0.062 -0.296,0.179 -0.39,0.343 -0.094,0.157 -0.141,0.344 -0.141,0.563 0,0.344 0.11,0.641 0.328,0.891 0.219,0.25 0.637,0.375 1.25,0.375 h 2.61 z"
         style="fill:#000000;fill-opacity:1;fill-rule:nonzero;stroke:none"
         id="path342" />
      <path
         d="m 6.719,59.125 h -0.61 c 0.481,0.305 0.719,0.75 0.719,1.344 0,0.386 -0.105,0.742 -0.312,1.062 -0.207,0.313 -0.5,0.559 -0.875,0.735 -0.383,0.179 -0.821,0.265 -1.313,0.265 -0.476,0 -0.91,-0.078 -1.297,-0.234 C 2.637,62.133 2.34,61.891 2.141,61.578 1.934,61.258 1.828,60.898 1.828,60.5 c 0,-0.281 0.063,-0.535 0.188,-0.766 0.117,-0.226 0.273,-0.41 0.468,-0.546 H 0.109 v -0.813 h 6.61 z m -2.391,2.563 c 0.617,0 1.074,-0.126 1.375,-0.376 0.305,-0.257 0.453,-0.566 0.453,-0.921 0,-0.352 -0.14,-0.657 -0.422,-0.907 -0.289,-0.25 -0.738,-0.375 -1.343,-0.375 -0.657,0 -1.133,0.133 -1.438,0.391 -0.301,0.25 -0.453,0.559 -0.453,0.922 0,0.367 0.148,0.668 0.438,0.906 0.292,0.242 0.757,0.36 1.39,0.36 z"
         style="fill:#000000;fill-opacity:1;fill-rule:nonzero;stroke:none"
         id="path344" />
      <path
         d="M 1.047,57.098 H 0.109 v -0.813 h 0.938 z m 5.672,0 H 1.938 v -0.813 h 4.781 z"
         style="fill:#000000;fill-opacity:1;fill-rule:nonzero;stroke:none"
         id="path346" />
      <path
         d="M 6.719,55.047 H 1.938 V 54.312 H 2.609 C 2.09,53.969 1.828,53.465 1.828,52.797 1.828,52.508 1.883,52.242 1.984,52 2.09,51.762 2.227,51.586 2.391,51.469 2.559,51.344 2.758,51.258 2.984,51.203 3.133,51.172 3.398,51.156 3.781,51.156 h 2.938 v 0.813 H 3.812 c -0.332,0 -0.582,0.031 -0.75,0.093 -0.164,0.063 -0.296,0.18 -0.39,0.344 -0.094,0.156 -0.141,0.344 -0.141,0.563 0,0.343 0.11,0.64 0.328,0.89 0.219,0.25 0.637,0.375 1.25,0.375 h 2.61 z"
         style="fill:#000000;fill-opacity:1;fill-rule:nonzero;stroke:none"
         id="path348" />
      <path
         d="M 7.109,50.066 7.234,49.27 C 7.473,49.238 7.648,49.145 7.766,48.988 7.91,48.793 7.984,48.52 7.984,48.176 7.984,47.801 7.91,47.512 7.766,47.301 7.617,47.094 7.41,46.953 7.141,46.879 6.973,46.84 6.625,46.824 6.094,46.832 c 0.418,0.356 0.625,0.793 0.625,1.313 0,0.667 -0.235,1.183 -0.703,1.546 -0.477,0.356 -1.051,0.532 -1.719,0.532 -0.457,0 -0.879,-0.082 -1.266,-0.25 C 2.648,49.809 2.352,49.566 2.141,49.254 1.934,48.941 1.828,48.574 1.828,48.145 1.828,47.582 2.055,47.121 2.5,46.754 H 1.938 v -0.75 h 4.124 c 0.75,0 1.282,0.078 1.594,0.234 0.313,0.149 0.555,0.387 0.735,0.719 0.175,0.324 0.265,0.727 0.265,1.203 0,0.574 -0.133,1.039 -0.39,1.391 -0.25,0.355 -0.637,0.527 -1.157,0.515 z M 4.234,49.395 c 0.637,0 1.102,-0.125 1.391,-0.375 0.281,-0.25 0.422,-0.563 0.422,-0.938 0,-0.375 -0.141,-0.687 -0.422,-0.937 -0.289,-0.258 -0.742,-0.391 -1.359,-0.391 -0.582,0 -1.02,0.133 -1.313,0.391 -0.301,0.261 -0.453,0.574 -0.453,0.937 0,0.367 0.148,0.68 0.438,0.938 0.292,0.25 0.726,0.375 1.296,0.375 z"
         style="fill:#000000;fill-opacity:1;fill-rule:nonzero;stroke:none"
         id="path350" />
      <path
         d="M 80.676,110.738 243.941,12.41"
         style="fill:none;stroke:#009c73;stroke-width:1.63025;stroke-linecap:round;stroke-linejoin:round;stroke-miterlimit:10;stroke-dasharray:none;stroke-opacity:1"
         id="path352" />
      <path
         d="M 145.98,38.223 178.633,84.93"
         style="fill:none;stroke:#0070b0;stroke-width:1.63025;stroke-linecap:round;stroke-linejoin:round;stroke-miterlimit:10;stroke-dasharray:4.89075, 8.15125;stroke-dashoffset:0;stroke-opacity:1"
         id="path354" />
    </g>
  </g>
</svg>
